<?xml version="1.0" encoding="UTF-8" standalone="no"?>
<!DOCTYPE svg PUBLIC "-//W3C//DTD SVG 1.1//EN" "http://www.w3.org/Graphics/SVG/1.1/DTD/svg11.dtd">
<svg version="1.1" xmlns="http://www.w3.org/2000/svg" xmlns:xlink="http://www.w3.org/1999/xlink" preserveAspectRatio="xMidYMid meet" viewBox="0 0 80 80" width="80" height="80"><defs><path d="M0 66.71C0 65.11 0.43 63.54 1.23 62.14C4.32 56.8 28.99 14.06 32.08 8.71C33.71 5.89 36.74 4.14 40 4.14C43.26 4.14 46.29 5.89 47.92 8.71C51.01 14.06 75.68 56.8 78.77 62.14C79.57 63.54 80 65.11 80 66.71C80 71.75 75.89 75.86 70.85 75.86C66.74 75.86 46.17 75.86 9.15 75.86C3.05 73.12 0 70.07 0 66.71Z" id="d4WGUlbJzM"></path><path d="M6.32 65.08C5.06 67.26 6.63 69.98 9.15 69.98C15.32 69.98 64.68 69.98 70.85 69.98C73.37 69.98 74.94 67.26 73.68 65.08C70.6 59.74 45.92 16.99 42.83 11.65C41.57 9.47 38.43 9.47 37.17 11.65C34.08 16.99 9.4 59.74 6.32 65.08C5.06 67.26 6.63 69.98 9.15 69.98C15.32 69.98 64.68 69.98 70.85 69.98C73.37 69.98 74.94 67.26 73.68 65.08C70.6 59.74 45.92 16.99 42.83 11.65C41.57 9.47 38.43 9.47 37.17 11.65C31 22.34 9.4 59.74 6.32 65.08Z" id="dlVKQbQPY"></path><path d="M47.92 8.71C46.29 5.89 43.26 4.14 40 4.14C39.12 4.14 38.25 4.27 37.42 4.51C39.65 5.17 41.58 6.66 42.77 8.71C45.85 14.06 70.53 56.8 73.62 62.14C74.42 63.54 74.85 65.12 74.85 66.71C74.85 71.76 70.74 75.86 65.7 75.86C66.21 75.86 70.33 75.86 70.85 75.86C75.89 75.86 80 71.76 80 66.71C80 65.11 79.57 63.54 78.77 62.14C72.6 51.46 51.01 14.06 47.92 8.71Z" id="cOGy84aNt"></path><path d="M42.83 11.65C41.69 9.68 39.02 9.49 37.59 11.08C37.74 11.25 37.88 11.44 38 11.65C41.09 16.99 65.77 59.74 68.85 65.08C70.11 67.26 68.54 69.98 66.02 69.98C66.5 69.98 70.37 69.98 70.85 69.98C73.37 69.98 74.94 67.26 73.68 65.08C67.51 54.39 45.92 16.99 42.83 11.65Z" id="a46t6S9rc"></path><path d="M38.54 47C38 47 37.55 46.58 37.52 46.04C37.42 44.35 36.57 30.75 36.46 29.05C36.43 28.47 36.89 27.97 37.48 27.97C37.95 27.97 41.75 27.97 42.22 27.97C42.81 27.97 43.27 28.47 43.23 29.05C43.13 30.75 42.28 44.35 42.18 46.04C42.14 46.58 41.7 47 41.16 47C40.64 47 38.8 47 38.54 47ZM36.85 55.37C36.85 57.02 38.2 58.36 39.85 58.36C41.5 58.36 42.84 57.02 42.84 55.37C42.84 53.71 41.5 52.37 39.85 52.37C38.2 52.37 36.85 53.71 36.85 55.37Z" id="a54HJnseG3"></path></defs><g><g><g><use xlink:href="#d4WGUlbJzM" opacity="1" fill="#75cff9" fill-opacity="1"></use><g><use xlink:href="#d4WGUlbJzM" opacity="1" fill-opacity="0" stroke="#000000" stroke-width="1" stroke-opacity="0"></use></g></g><g><use xlink:href="#dlVKQbQPY" opacity="1" fill="#cceffd" fill-opacity="1"></use><g><use xlink:href="#dlVKQbQPY" opacity="1" fill-opacity="0" stroke="#000000" stroke-width="1" stroke-opacity="0"></use></g></g><g><use xlink:href="#cOGy84aNt" opacity="1" fill="#6cbff8" fill-opacity="1"></use><g><use xlink:href="#cOGy84aNt" opacity="1" fill-opacity="0" stroke="#000000" stroke-width="1" stroke-opacity="0"></use></g></g><g><use xlink:href="#a46t6S9rc" opacity="1" fill="#aae2fa" fill-opacity="1"></use><g><use xlink:href="#a46t6S9rc" opacity="1" fill-opacity="0" stroke="#000000" stroke-width="1" stroke-opacity="0"></use></g></g><g><use xlink:href="#a54HJnseG3" opacity="1" fill="#5fa7ee" fill-opacity="1"></use><g><use xlink:href="#a54HJnseG3" opacity="1" fill-opacity="0" stroke="#000000" stroke-width="1" stroke-opacity="0"></use></g></g></g></g></svg>