<svg width="500" height="400" xmlns="http://www.w3.org/2000/svg" xmlns:xlink="http://www.w3.org/1999/xlink" preserveAspectRatio="xMidYMid meet">
 <defs>
  <path id="a7IIgMcJnx" d="m48.5,282.3c6.25,0 11.32,-5.07 11.32,-11.33c0,-3.81 0,-34.35 0,-38.17c0,-6.25 -5.07,-11.32 -11.32,-11.32c-0.17,0 -1.51,0 -1.67,0c-6.26,0 -11.33,5.07 -11.33,11.32c0,3.82 0,34.36 0,38.17c0,6.26 5.07,11.33 11.33,11.33c0.33,0 1.5,0 1.67,0z"/>
  <path id="a14FRuPsIY" d="m47.04,221.48c-1.97,0 -3.83,0.5 -5.45,1.37c3.61,1.95 6.07,5.77 6.07,10.17c0,3.77 0,33.96 0,37.74c0,4.4 -2.46,8.22 -6.07,10.16c1.62,0.88 3.48,1.38 5.45,1.38c0.13,0 1.12,0 1.25,0c6.37,0 11.53,-5.17 11.53,-11.54c0,-3.78 0,-33.97 0,-37.75c0,-6.37 -5.16,-11.53 -11.53,-11.53c-0.25,0 -1.12,0 -1.25,0z"/>
  <path id="a36fQPR4Z4" d="m28.91,250.91c-4.7,12.68 -6.78,20.29 -6.24,22.83c0.09,0.4 0.77,3.56 0.85,3.96c0.68,3.15 2.81,5.8 5.76,7.12c1.36,0.61 8.15,3.66 20.39,9.15c4.46,-9.95 6.94,-15.48 7.44,-16.58c2.85,-6.36 0.02,-13.82 -6.34,-16.67c-2.91,-1.31 -10.2,-4.58 -21.86,-9.81z"/>
  <path id="alhKRRbpA" d="m49.71,260.24c-0.15,1.26 -0.48,2.52 -1.03,3.74c-0.32,0.71 -2.88,6.41 -3.19,7.12c-2.35,5.23 -8.49,7.56 -13.72,5.22c-0.96,-0.44 -8.66,-3.89 -9.63,-4.33c0.22,0.57 0.4,1.15 0.53,1.75c0.09,0.4 0.77,3.56 0.85,3.96c0.68,3.15 2.81,5.8 5.76,7.12c1.36,0.61 8.15,3.66 20.39,9.15c4.46,-9.95 6.94,-15.48 7.44,-16.58c2.85,-6.36 0.02,-13.82 -6.34,-16.67c-0.21,-0.09 -0.96,-0.43 -1.06,-0.48z"/>
  <path id="b1kV592IWK" d="m126.02,258.52c0,-99.12 0,-154.19 0,-165.2c0,-8.02 6.5,-14.53 14.52,-14.53c21.73,0 195.5,0 217.23,0c8.02,0 14.52,6.51 14.52,14.53c0,11.01 0,66.08 0,165.2l-246.27,0z"/>
  <path id="h3Ln6DP88D" d="m319.11,78.79c8.62,0 15.6,6.99 15.6,15.6c0,10.95 0,65.65 0,164.13l37.59,0c0,-98.48 0,-153.18 0,-164.13c0,-8.61 -6.99,-15.6 -15.6,-15.6c-7.52,0 -33.83,0 -37.59,0z"/>
  <path id="b2sLBfrG0c" d="m452.33,282.3c6.25,0 11.32,-5.07 11.32,-11.33c0,-3.81 0,-34.35 0,-38.17c0,-6.25 -5.07,-11.32 -11.32,-11.32c-0.17,0 -1.51,0 -1.67,0c-6.26,0 -11.33,5.07 -11.33,11.32c0,3.82 0,34.36 0,38.17c0.01,6.26 5.07,11.33 11.33,11.33c0.33,0 1.5,0 1.67,0z"/>
  <path id="a7Q3m7pJC" d="m450.87,221.48c-1.97,0 -3.83,0.5 -5.45,1.37c3.61,1.95 6.07,5.77 6.07,10.17c0,3.77 0,33.96 0,37.74c0,4.4 -2.46,8.22 -6.07,10.16c1.62,0.88 3.48,1.38 5.45,1.38c0.13,0 1.12,0 1.25,0c6.37,0 11.53,-5.17 11.53,-11.54c0,-3.78 0,-33.97 0,-37.75c0,-6.37 -5.16,-11.53 -11.53,-11.53c-0.25,0 -1.12,0 -1.25,0z"/>
  <path id="c1Y0J2fRhs" d="m432.42,240.67c-4.67,-11.6 -15.91,-19.19 -28.41,-19.19c-6.73,0 -60.57,0 -67.3,0c-4.47,0 -8.81,1.48 -12.33,4.24c-17.01,13.39 -44.37,22.07 -75.23,22.07c-30.85,0 -58.21,-8.68 -75.22,-22.07c-3.52,-2.76 -7.86,-4.24 -12.33,-4.24c-6.73,0 -60.57,0 -67.3,0c-12.5,0 -23.74,7.6 -28.41,19.19c-4.07,10.12 -36.65,91.08 -40.72,101.2c-1.46,3.63 -2.22,7.51 -2.22,11.43c0,6.9 0,62.15 0,69.06c0,5.99 4.86,10.85 10.85,10.85c43.07,0 387.64,0 430.71,0c5.99,0 10.85,-4.86 10.85,-10.85c0,-6.91 0,-62.16 0,-69.06c0,-3.92 -0.75,-7.8 -2.22,-11.43c-8.14,-20.24 -36.65,-91.08 -40.72,-101.2z"/>
  <path id="b5bItTH1p0" d="m432.42,240.67c-4.67,-11.6 -15.91,-19.19 -28.41,-19.19c-6.6,0 -59.39,0 -65.99,0c12.5,0 23.75,7.6 28.41,19.19c4.07,10.12 36.66,91.08 40.73,101.2c1.46,3.63 2.21,7.51 2.21,11.43c0,6.9 0,62.15 0,69.06c0,5.99 -4.85,10.85 -10.84,10.85c6.59,0 59.38,0 65.98,0c5.99,0 10.85,-4.86 10.85,-10.85c0,-6.91 0,-62.16 0,-69.06c0,-3.92 -0.75,-7.8 -2.22,-11.43c-8.14,-20.24 -36.65,-91.08 -40.72,-101.2z"/>
  <path id="bNmqCL5A" d="m459.83,288.31c6.74,-2.98 11.46,-9.72 11.46,-17.55c0,-3.78 0,-33.97 0,-37.75c0,-10.57 -8.6,-19.17 -19.17,-19.17c-0.13,0 -1.12,0 -1.25,0c-8.41,0 -15.55,5.44 -18.13,12.99c-7.12,-8.13 -17.46,-12.99 -28.73,-12.99c-1.61,0 -9.63,0 -24.07,0c0,-72.15 0,-112.23 0,-120.24c0,-12.38 -10.07,-22.45 -22.45,-22.45c-2.5,0 -22.52,0 -25.03,0c-4.22,0 -7.64,3.42 -7.64,7.64c0,4.22 3.42,7.64 7.64,7.64c2.51,0 22.53,0 25.03,0c3.95,0 7.16,3.22 7.16,7.17c0,8.01 0,48.09 0,120.24c-16.76,0 -26.07,0 -27.93,0c-6.19,0 -12.24,2.08 -17.06,5.87c-16.26,12.8 -42.62,20.44 -70.5,20.44c-9.43,0 -18.7,-0.85 -27.56,-2.53c-4.14,-0.78 -8.14,1.94 -8.93,6.09c-0.78,4.15 1.94,8.15 6.09,8.93c9.8,1.85 20.02,2.79 30.4,2.79c31.66,0 60.8,-8.64 79.95,-23.7c2.14,-1.68 4.84,-2.61 7.61,-2.61c6.73,0 60.56,0 67.29,0c9.43,0 17.8,5.65 21.32,14.4c4.07,10.12 36.65,91.08 40.72,101.2c1.11,2.74 1.67,5.62 1.67,8.58c0,6.9 0,62.15 0,69.06c0,1.77 -1.44,3.2 -3.21,3.2c-43.07,0 -387.64,0 -430.71,0c-1.77,0 -3.2,-1.43 -3.2,-3.2c0,-1.09 0,-9.82 0,-10.91c0,-4.22 -3.42,-7.64 -7.64,-7.64c-4.22,0 -7.65,3.42 -7.65,7.64c0,1.09 0,9.82 0,10.91c0,10.2 8.3,18.49 18.49,18.49c43.07,0 387.64,0 430.71,0c10.2,0 18.49,-8.29 18.49,-18.49c0,-6.91 0,-62.16 0,-69.06c0,-4.92 -0.93,-9.73 -2.77,-14.29c-4.08,-10.14 -18.36,-45.63 -20.4,-50.7zm-12.85,-55.29c0,-2.15 1.74,-3.9 3.89,-3.9c0.13,0 1.12,0 1.25,0c2.14,0 3.89,1.75 3.89,3.9c0,3.77 0,33.96 0,37.74c0,1.42 -0.77,2.65 -1.91,3.33c-0.71,-1.78 -6.43,-15.99 -7.14,-17.76c0,-0.15 0.02,-0.3 0.02,-0.44c0,-4.58 0,-18.3 0,-22.87z"/>
  <path id="a22kKvtxcJ" d="m139.44,302.42c0,-6.25 -5.06,-11.31 -11.31,-11.31c-2.19,0 -19.69,0 -21.88,0c-6.25,0 -11.31,5.06 -11.31,11.31c0,0.12 0,1.1 0,1.22c0,6.25 5.06,11.31 11.31,11.31c2.19,0 19.69,0 21.88,0c6.25,0 11.31,-5.06 11.31,-11.31c0,-0.24 0,-1.1 0,-1.22z"/>
  <path id="a1MnkUU9m3" d="m172.23,291.11c-6.25,0 -11.31,5.06 -11.31,11.31c0,0.12 0,1.1 0,1.22c0,6.25 5.06,11.31 11.31,11.31c2.19,0 19.7,0 21.88,0c6.25,0 11.32,-5.06 11.32,-11.31c0,-0.12 0,-1.1 0,-1.22c0,-6.25 -5.07,-11.31 -11.32,-11.31c-4.37,0 -19.69,0 -21.88,0z"/>
  <path id="g3vZmgraxN" d="m238.21,291.11c-6.24,0 -11.31,5.06 -11.31,11.31c0,0.12 0,1.1 0,1.22c0,6.25 5.07,11.31 11.31,11.31c2.19,0 19.7,0 21.89,0c6.25,0 11.31,-5.06 11.31,-11.31c0,-0.12 0,-1.1 0,-1.22c0,-6.25 -5.07,-11.31 -11.31,-11.31c-4.38,0 -19.7,0 -21.89,0z"/>
  <path id="a5yq2ZZxjx" d="m304.2,291.11c-6.25,0 -11.31,5.06 -11.31,11.31c0,0.12 0,1.1 0,1.22c0,6.25 5.06,11.31 11.31,11.31c2.19,0 19.69,0 21.88,0c6.25,0 11.31,-5.06 11.31,-11.31c0,-0.12 0,-1.1 0,-1.22c0,-6.25 -5.06,-11.31 -11.31,-11.31c-4.37,0 -19.69,0 -21.88,0z"/>
  <path id="dA363aKYk" d="m370.18,291.11c-6.25,0 -11.31,5.06 -11.31,11.31c0,0.12 0,1.1 0,1.22c0,6.25 5.07,11.31 11.31,11.31c2.19,0 19.7,0 21.89,0c6.24,0 11.31,-5.06 11.31,-11.31c0,-0.12 0,-1.1 0,-1.22c0,-6.25 -5.07,-11.31 -11.31,-11.31c-4.38,0 -19.7,0 -21.89,0z"/>
  <path id="dWpUAJYyS" d="m73.17,330.37c-6.25,0 -11.31,5.07 -11.31,11.31c0,0.12 0,1.1 0,1.22c0,6.25 5.06,11.31 11.31,11.31c2.19,0 19.7,0 21.88,0c6.25,0 11.32,-5.06 11.32,-11.31c0,-0.12 0,-1.1 0,-1.22c0,-6.24 -5.07,-11.31 -11.32,-11.31c-4.37,0 -19.69,0 -21.88,0z"/>
  <path id="aaN5PYhZK" d="m161.04,354.21c6.25,0 11.31,-5.06 11.31,-11.31c0,-0.12 0,-1.1 0,-1.22c0,-6.24 -5.06,-11.31 -11.31,-11.31c-2.19,0 -19.7,0 -21.89,0c-6.24,0 -11.31,5.07 -11.31,11.31c0,0.12 0,1.1 0,1.22c0,6.25 5.07,11.31 11.31,11.31c4.38,0 19.7,0 21.89,0z"/>
  <path id="bWQLE3Et4" d="m193.83,342.9c0,6.25 5.06,11.31 11.31,11.31c2.19,0 19.69,0 21.88,0c6.25,0 11.31,-5.06 11.31,-11.31c0,-0.12 0,-1.1 0,-1.22c0,-6.24 -5.06,-11.31 -11.31,-11.31c-2.19,0 -19.69,0 -21.88,0c-6.25,0 -11.31,5.07 -11.31,11.31c0,0.25 0,1.1 0,1.22z"/>
  <path id="es4zFJg4V" d="m259.81,342.9c0,6.25 5.07,11.31 11.31,11.31c2.19,0 19.7,0 21.89,0c6.24,0 11.31,-5.06 11.31,-11.31c0,-0.12 0,-1.1 0,-1.22c0,-6.24 -5.07,-11.31 -11.31,-11.31c-2.19,0 -19.7,0 -21.89,0c-6.25,0 -11.31,5.07 -11.31,11.31c0,0.25 0,1.1 0,1.22z"/>
  <path id="b1UwMPIUr" d="m325.79,342.9c0,6.25 5.07,11.31 11.31,11.31c2.19,0 19.7,0 21.89,0c6.25,0 11.31,-5.06 11.31,-11.31c0,-0.12 0,-1.1 0,-1.22c0,-6.24 -5.06,-11.31 -11.31,-11.31c-2.19,0 -19.7,0 -21.89,0c-6.24,0 -11.31,5.07 -11.31,11.31c0,0.25 0,1.1 0,1.22z"/>
  <path id="acQZor8rf" d="m391.86,342.9c0,6.25 5.07,11.31 11.31,11.31c2.19,0 19.7,0 21.89,0c6.25,0 11.31,-5.06 11.31,-11.31c0,-0.12 0,-1.1 0,-1.22c0,-6.24 -5.07,-11.31 -11.31,-11.31c-2.19,0 -19.7,0 -21.89,0c-6.24,0 -11.31,5.07 -11.31,11.31c0,0.25 0,1.1 0,1.22z"/>
  <path id="d40SIaCo7" d="m249.16,136.23c4.22,0 7.64,-3.42 7.64,-7.64c0,-4.22 -3.42,-7.64 -7.64,-7.64c-7.09,0 -63.79,0 -70.88,0c-4.22,0 -7.64,3.42 -7.64,7.64c0,4.22 3.42,7.64 7.64,7.64c14.17,0 63.79,0 70.88,0z"/>
  <path id="b5juCbXENy" d="m178.28,169.52c14.08,0 126.75,0 140.83,0c4.22,0 7.64,-3.42 7.64,-7.64c0,-4.22 -3.42,-7.64 -7.64,-7.64c-14.08,0 -126.75,0 -140.83,0c-4.22,0 -7.64,3.42 -7.64,7.64c0,4.22 3.42,7.64 7.64,7.64z"/>
  <path id="a2J0k5NlrZ" d="m23.52,277.7c0.68,3.16 2.81,5.8 5.76,7.12c0.6,0.27 3.59,1.62 8.98,4.04c-12.11,30.09 -18.83,46.81 -20.18,50.15c-1.84,4.56 -2.77,9.37 -2.77,14.29c0,2.28 0,20.54 0,22.83c0,4.22 3.42,7.64 7.65,7.64c4.22,0 7.64,-3.42 7.64,-7.64c0,-2.29 0,-20.55 0,-22.83c0,-2.96 0.56,-5.84 1.66,-8.58c4.07,-10.12 36.65,-91.08 40.73,-101.2c3.52,-8.75 11.88,-14.4 21.31,-14.4c6.73,0 60.57,0 67.3,0c2.77,0 5.47,0.93 7.6,2.61c3.83,3.01 8.16,5.82 12.85,8.35c3.72,1.99 8.36,0.6 10.36,-3.11c1.99,-3.72 0.6,-8.36 -3.11,-10.35c-3.93,-2.11 -7.51,-4.43 -10.65,-6.9c-4.81,-3.8 -10.87,-5.88 -17.05,-5.88c-1.86,0 -11.18,0 -27.94,0c0,-72.15 0,-112.23 0,-120.24c0,-3.95 3.21,-7.16 7.16,-7.16c15.63,0 140.69,0 156.32,0c4.22,0 7.64,-3.43 7.64,-7.65c0,-4.22 -3.42,-7.64 -7.64,-7.64c-15.63,0 -140.69,0 -156.32,0c-12.38,0 -22.44,10.07 -22.44,22.45c-0.01,8.01 -0.01,48.09 0,120.24c-14.45,0 -22.47,0 -24.08,0c-10.95,0 -21.04,4.59 -28.13,12.31c-2.77,-7.19 -9.73,-12.31 -17.88,-12.31c-0.13,0 -1.12,0 -1.25,0c-10.57,0 -19.18,8.6 -19.18,19.18c0,1.16 0,6.96 0,17.42c-4,13 -5.73,20.77 -5.19,23.3c0.17,0.79 0.77,3.56 0.85,3.96zm23.52,-48.58c0.13,0 1.12,0 1.24,0c2.15,0 3.9,1.75 3.9,3.9c0,2.09 0,18.81 0,20.91c0,0.1 0.01,0.21 0.01,0.31c-0.16,0.41 -0.97,2.41 -2.42,6.03c-4.38,-1.96 -6.81,-3.06 -7.3,-3.27c0.43,-0.96 0.68,-2.02 0.68,-3.13c0,-1.39 0,-8.34 0,-20.85c1.16,-2.6 2.46,-3.9 3.89,-3.9z"/>
 </defs>
 <g>
  <title>background</title>
  <rect fill="none" id="canvas_background" height="402" width="502" y="-1" x="-1"/>
 </g>
 <g>
  <title>Layer 1</title>
  <g id="svg_1">
   <g id="svg_2">
    <g id="svg_3">
     <use x="0" y="-56" id="svg_4" fill="#a698a6" xlink:href="#a7IIgMcJnx"/>
     <g id="svg_5">
      <use x="0" y="-56" id="svg_6" stroke-opacity="0" stroke="#000000" fill-opacity="0" xlink:href="#a7IIgMcJnx"/>
     </g>
    </g>
    <g id="svg_7">
     <use x="0" y="-56" id="svg_8" fill="#8f818f" xlink:href="#a14FRuPsIY"/>
     <g id="svg_9">
      <use x="0" y="-56" id="svg_10" stroke-opacity="0" stroke="#000000" fill-opacity="0" xlink:href="#a14FRuPsIY"/>
     </g>
    </g>
    <g id="svg_11">
     <use x="0" y="-56" id="svg_12" fill="#695e66" xlink:href="#a36fQPR4Z4"/>
     <g id="svg_13">
      <use x="0" y="-56" id="svg_14" stroke-opacity="0" stroke="#000000" fill-opacity="0" xlink:href="#a36fQPR4Z4"/>
     </g>
    </g>
    <g id="svg_15">
     <use x="0" y="-56" id="svg_16" fill="#554e57" xlink:href="#alhKRRbpA"/>
     <g id="svg_17">
      <use x="0" y="-56" id="svg_18" stroke-opacity="0" stroke="#000000" fill-opacity="0" xlink:href="#alhKRRbpA"/>
     </g>
    </g>
    <g id="svg_19">
     <use x="0" y="-56" id="svg_20" fill="#eedfda" xlink:href="#b1kV592IWK"/>
     <g id="svg_21">
      <use x="0" y="-56" id="svg_22" stroke-opacity="0" stroke="#000000" fill-opacity="0" xlink:href="#b1kV592IWK"/>
     </g>
    </g>
    <g id="svg_23">
     <use x="0" y="-56" id="svg_24" fill="#ded0cb" xlink:href="#h3Ln6DP88D"/>
     <g id="svg_25">
      <use x="0" y="-56" id="svg_26" stroke-opacity="0" stroke="#000000" fill-opacity="0" xlink:href="#h3Ln6DP88D"/>
     </g>
    </g>
    <g id="svg_27">
     <use x="0" y="-56" id="svg_28" fill="#a698a6" xlink:href="#b2sLBfrG0c"/>
     <g id="svg_29">
      <use x="0" y="-56" id="svg_30" stroke-opacity="0" stroke="#000000" fill-opacity="0" xlink:href="#b2sLBfrG0c"/>
     </g>
    </g>
    <g id="svg_31">
     <use x="0" y="-56" id="svg_32" fill="#8f818f" xlink:href="#a7Q3m7pJC"/>
     <g id="svg_33">
      <use x="0" y="-56" id="svg_34" stroke-opacity="0" stroke="#000000" fill-opacity="0" xlink:href="#a7Q3m7pJC"/>
     </g>
    </g>
    <g id="svg_35">
     <use x="0" y="-56" id="svg_36" fill="#695e66" xlink:href="#c1Y0J2fRhs"/>
     <g id="svg_37">
      <use x="0" y="-56" id="svg_38" stroke-opacity="0" stroke="#000000" fill-opacity="0" xlink:href="#c1Y0J2fRhs"/>
     </g>
    </g>
    <g id="svg_39">
     <use x="0" y="-56" id="svg_40" fill="#554e57" xlink:href="#b5bItTH1p0"/>
     <g id="svg_41">
      <use x="0" y="-56" id="svg_42" stroke-opacity="0" stroke="#000000" fill-opacity="0" xlink:href="#b5bItTH1p0"/>
     </g>
    </g>
    <g id="svg_43">
     <use x="0" y="-56" id="svg_44" fill="#000000" xlink:href="#bNmqCL5A"/>
     <g id="svg_45">
      <use x="0" y="-56" id="svg_46" stroke-opacity="0" stroke="#000000" fill-opacity="0" xlink:href="#bNmqCL5A"/>
     </g>
    </g>
    <g id="svg_47">
     <use x="0" y="-56" id="svg_48" fill="#000000" xlink:href="#a22kKvtxcJ"/>
     <g id="svg_49">
      <use x="0" y="-56" id="svg_50" stroke-opacity="0" stroke="#000000" fill-opacity="0" xlink:href="#a22kKvtxcJ"/>
     </g>
    </g>
    <g id="svg_51">
     <use x="0" y="-56" id="svg_52" fill="#000000" xlink:href="#a1MnkUU9m3"/>
     <g id="svg_53">
      <use x="0" y="-56" id="svg_54" stroke-opacity="0" stroke="#000000" fill-opacity="0" xlink:href="#a1MnkUU9m3"/>
     </g>
    </g>
    <g id="svg_55">
     <use x="0" y="-56" id="svg_56" fill="#000000" xlink:href="#g3vZmgraxN"/>
     <g id="svg_57">
      <use x="0" y="-56" id="svg_58" stroke-opacity="0" stroke="#000000" fill-opacity="0" xlink:href="#g3vZmgraxN"/>
     </g>
    </g>
    <g id="svg_59">
     <use x="0" y="-56" id="svg_60" fill="#000000" xlink:href="#a5yq2ZZxjx"/>
     <g id="svg_61">
      <use x="0" y="-56" id="svg_62" stroke-opacity="0" stroke="#000000" fill-opacity="0" xlink:href="#a5yq2ZZxjx"/>
     </g>
    </g>
    <g id="svg_63">
     <use x="0" y="-56" id="svg_64" fill="#000000" xlink:href="#dA363aKYk"/>
     <g id="svg_65">
      <use x="0" y="-56" id="svg_66" stroke-opacity="0" stroke="#000000" fill-opacity="0" xlink:href="#dA363aKYk"/>
     </g>
    </g>
    <g id="svg_67">
     <use x="0" y="-56" id="svg_68" fill="#000000" xlink:href="#dWpUAJYyS"/>
     <g id="svg_69">
      <use x="0" y="-56" id="svg_70" stroke-opacity="0" stroke="#000000" fill-opacity="0" xlink:href="#dWpUAJYyS"/>
     </g>
    </g>
    <g id="svg_71">
     <use x="0" y="-56" id="svg_72" fill="#000000" xlink:href="#aaN5PYhZK"/>
     <g id="svg_73">
      <use x="0" y="-56" id="svg_74" stroke-opacity="0" stroke="#000000" fill-opacity="0" xlink:href="#aaN5PYhZK"/>
     </g>
    </g>
    <g id="svg_75">
     <use x="0" y="-56" id="svg_76" fill="#000000" xlink:href="#bWQLE3Et4"/>
     <g id="svg_77">
      <use x="0" y="-56" id="svg_78" stroke-opacity="0" stroke="#000000" fill-opacity="0" xlink:href="#bWQLE3Et4"/>
     </g>
    </g>
    <g id="svg_79">
     <use x="0" y="-56" id="svg_80" fill="#000000" xlink:href="#es4zFJg4V"/>
     <g id="svg_81">
      <use x="0" y="-56" id="svg_82" stroke-opacity="0" stroke="#000000" fill-opacity="0" xlink:href="#es4zFJg4V"/>
     </g>
    </g>
    <g id="svg_83">
     <use x="0" y="-56" id="svg_84" fill="#000000" xlink:href="#b1UwMPIUr"/>
     <g id="svg_85">
      <use x="0" y="-56" id="svg_86" stroke-opacity="0" stroke="#000000" fill-opacity="0" xlink:href="#b1UwMPIUr"/>
     </g>
    </g>
    <g id="svg_87">
     <use x="0" y="-56" id="svg_88" fill="#000000" xlink:href="#acQZor8rf"/>
     <g id="svg_89">
      <use x="0" y="-56" id="svg_90" stroke-opacity="0" stroke="#000000" fill-opacity="0" xlink:href="#acQZor8rf"/>
     </g>
    </g>
    <g id="svg_91">
     <use x="0" y="-56" id="svg_92" fill="#000000" xlink:href="#d40SIaCo7"/>
     <g id="svg_93">
      <use x="0" y="-56" id="svg_94" stroke-opacity="0" stroke="#000000" fill-opacity="0" xlink:href="#d40SIaCo7"/>
     </g>
    </g>
    <g id="svg_95">
     <use x="0" y="-56" id="svg_96" fill="#000000" xlink:href="#b5juCbXENy"/>
     <g id="svg_97">
      <use x="0" y="-56" id="svg_98" stroke-opacity="0" stroke="#000000" fill-opacity="0" xlink:href="#b5juCbXENy"/>
     </g>
    </g>
    <g id="svg_99">
     <use x="0" y="-56" id="svg_100" fill="#000000" xlink:href="#a2J0k5NlrZ"/>
     <g id="svg_101">
      <use x="0" y="-56" id="svg_102" stroke-opacity="0" stroke="#000000" fill-opacity="0" xlink:href="#a2J0k5NlrZ"/>
     </g>
    </g>
   </g>
  </g>
 </g>
</svg>