<?xml version="1.0" encoding="iso-8859-1"?>
<!-- Generator: Adobe Illustrator 19.0.0, SVG Export Plug-In . SVG Version: 6.00 Build 0)  -->
<svg version="1.1" id="Capa_1" xmlns="http://www.w3.org/2000/svg" xmlns:xlink="http://www.w3.org/1999/xlink" x="0px" y="0px"
	 viewBox="0 0 504.42 504.42" style="enable-background:new 0 0 504.42 504.42;" xml:space="preserve">
<g>
	<g transform="translate(1 1)">
		<path style="fill:#E3E7F2;" d="M144.838,148.506l-12.06,12.06c-2.436,2.436-2.813,6.252-0.903,9.118l17.151,25.728l12.492,10.219
			l33.039-29.62l-14.875-11.255l-25.727-17.152C151.09,145.693,147.274,146.071,144.838,148.506z"/>
		<path style="fill:#7FACFA;" d="M489.671,171.543L171.14,490.074c-3.435,3.517-8.286,5.279-13.178,4.784
			c-4.009-0.177-7.796-1.89-10.576-4.784L12.755,355.443c-6.547-6.564-6.547-17.189,0-23.753L319.284,25.161l12.003-12.003
			c3.133-3.181,7.412-4.973,11.877-4.973c4.465,0,8.744,1.791,11.877,4.973l134.631,134.631
			C496.218,154.354,496.218,164.978,489.671,171.543z"/>
		<g>
			<path style="fill:#E3E7F2;" d="M464.49,188.33L157.962,494.858c-4.009-0.177-7.796-1.89-10.576-4.784L12.755,355.443
				c-6.547-6.564-6.547-17.189,0-23.753L319.284,25.161c4,0.215,7.773,1.922,10.576,4.784L464.49,164.576
				c3.182,3.133,4.974,7.411,4.974,11.877C469.464,180.918,467.672,185.197,464.49,188.33z"/>
			<path style="fill:#E3E7F2;" d="M47.669,337.677L61.345,324c3.278-3.278,8.592-3.278,11.87,0l13.677,13.676
				c3.278,3.278,3.278,8.592,0,11.87l-13.677,13.677c-3.278,3.278-8.592,3.278-11.87,0l-13.677-13.676
				C44.391,346.27,44.391,340.955,47.669,337.677L47.669,337.677z"/>
			<path style="fill:#E3E7F2;" d="M93.614,383.639l13.677-13.677c3.278-3.278,8.592-3.278,11.87,0l13.677,13.677
				c3.278,3.278,3.278,8.592,0,11.87l-13.677,13.677c-3.278,3.278-8.592,3.278-11.87,0L93.614,395.51
				c-1.574-1.574-2.459-3.709-2.459-5.935C91.156,387.348,92.04,385.213,93.614,383.639z"/>
			<path style="fill:#E3E7F2;" d="M139.635,429.619l13.676-13.677c3.278-3.278,8.592-3.278,11.87,0l13.677,13.676
				c3.278,3.278,3.278,8.592,0,11.87l-13.677,13.677c-3.278,3.278-8.592,3.278-11.87,0l-13.677-13.676
				C136.357,438.211,136.357,432.897,139.635,429.619L139.635,429.619z"/>
			<path style="fill:#E3E7F2;" d="M93.655,291.664l13.677-13.677c3.278-3.278,8.592-3.278,11.87,0l13.677,13.676
				c3.278,3.278,3.278,8.592,0,11.87l-13.677,13.677c-3.278,3.278-8.592,3.278-11.87,0l-13.677-13.676
				c-1.574-1.574-2.459-3.709-2.459-5.935C91.196,295.373,92.08,293.238,93.655,291.664z"/>
			<path style="fill:#E3E7F2;" d="M139.634,337.652l13.676-13.677c3.278-3.278,8.592-3.278,11.87,0l13.677,13.676
				c3.278,3.278,3.278,8.592,0,11.87l-13.677,13.677c-3.278,3.278-8.592,3.278-11.87,0l-13.677-13.676
				c-1.574-1.574-2.459-3.709-2.459-5.935C137.175,341.361,138.06,339.226,139.634,337.652z"/>
			<path style="fill:#E3E7F2;" d="M185.621,383.606l13.676-13.677c3.278-3.278,8.592-3.278,11.87,0l13.677,13.676
				c3.278,3.278,3.278,8.592,0,11.87l-13.677,13.677c-3.278,3.278-8.592,3.278-11.87,0l-13.677-13.676
				C182.343,392.199,182.343,386.885,185.621,383.606L185.621,383.606z"/>
			<path style="fill:#E3E7F2;" d="M139.632,245.685l13.676-13.677c3.278-3.278,8.592-3.278,11.87,0l13.677,13.677
				c3.278,3.278,3.278,8.592,0,11.87l-13.677,13.677c-3.278,3.278-8.592,3.278-11.87,0l-13.677-13.676
				C136.354,254.278,136.354,248.964,139.632,245.685L139.632,245.685z"/>
			<path style="fill:#E3E7F2;" d="M185.62,291.631l13.676-13.677c3.278-3.278,8.592-3.278,11.87,0l13.677,13.677
				c3.278,3.278,3.278,8.592,0,11.87l-13.677,13.677c-3.278,3.278-8.592,3.278-11.87,0l-13.677-13.676
				C182.342,300.224,182.342,294.909,185.62,291.631L185.62,291.631z"/>
			<path style="fill:#E3E7F2;" d="M185.618,199.698l13.676-13.677c3.278-3.278,8.592-3.278,11.87,0l13.677,13.676
				c3.278,3.278,3.278,8.592,0,11.87l-13.677,13.677c-3.278,3.278-8.592,3.278-11.87,0l-13.677-13.676
				C182.34,208.291,182.34,202.976,185.618,199.698L185.618,199.698z"/>
			<path style="fill:#E3E7F2;" d="M231.605,245.652l13.676-13.677c3.278-3.278,8.592-3.278,11.87,0l13.677,13.676
				c3.278,3.278,3.278,8.592,0,11.87l-13.677,13.677c-3.278,3.278-8.592,3.278-11.87,0l-13.677-13.676
				c-1.574-1.574-2.459-3.709-2.459-5.935C229.147,249.361,230.031,247.226,231.605,245.652z"/>
			<path style="fill:#E3E7F2;" d="M231.604,153.677L245.28,140c3.278-3.278,8.592-3.278,11.87,0l13.677,13.676
				c3.278,3.278,3.278,8.592,0,11.87l-13.677,13.677c-3.278,3.278-8.592,3.278-11.87,0l-13.677-13.676
				c-1.574-1.574-2.459-3.709-2.459-5.935C229.145,157.386,230.03,155.251,231.604,153.677z"/>
			<path style="fill:#E3E7F2;" d="M277.583,199.698l13.677-13.677c3.278-3.278,8.592-3.278,11.87,0l13.677,13.676
				c3.278,3.278,3.278,8.592,0,11.87l-13.677,13.677c-3.278,3.278-8.592,3.278-11.87,0l-13.677-13.676
				C274.305,208.291,274.305,202.977,277.583,199.698L277.583,199.698z"/>
			<path style="fill:#E3E7F2;" d="M277.59,107.723l13.676-13.677c3.278-3.278,8.592-3.278,11.87,0l13.677,13.677
				c3.278,3.278,3.278,8.592,0,11.87l-13.677,13.677c-3.278,3.278-8.592,3.278-11.87,0l-13.677-13.676
				C274.312,116.316,274.312,111.002,277.59,107.723L277.59,107.723z"/>
			<path style="fill:#E3E7F2;" d="M323.569,153.711l13.677-13.677c3.278-3.278,8.592-3.278,11.87,0l13.677,13.676
				c3.278,3.278,3.278,8.592,0,11.87l-13.677,13.677c-3.278,3.278-8.592,3.278-11.87,0l-13.677-13.676
				C320.291,162.304,320.291,156.989,323.569,153.711L323.569,153.711z"/>
			<path style="fill:#E3E7F2;" d="M369.564,199.69l13.676-13.677c3.278-3.278,8.592-3.278,11.87,0l13.677,13.676
				c3.278,3.278,3.278,8.592,0,11.87l-13.677,13.677c-3.278,3.278-8.592,3.278-11.87,0l-13.677-13.676
				C366.287,208.283,366.286,202.969,369.564,199.69L369.564,199.69z"/>
			<path style="fill:#E3E7F2;" d="M415.542,153.711l13.677-13.677c3.278-3.278,8.592-3.278,11.87,0l13.677,13.676
				c3.278,3.278,3.278,8.592,0,11.87l-13.677,13.677c-3.278,3.278-8.592,3.278-11.87,0l-13.677-13.676
				c-1.574-1.574-2.459-3.709-2.459-5.935C413.083,157.42,413.967,155.285,415.542,153.711z"/>
			<path style="fill:#E3E7F2;" d="M231.6,337.65l105.644-105.647c3.278-3.278,8.592-3.278,11.87,0l13.677,13.676
				c3.278,3.278,3.278,8.592,0,11.87L257.147,363.197c-3.278,3.278-8.592,3.278-11.87,0L231.6,349.521
				C228.323,346.243,228.322,340.929,231.6,337.65L231.6,337.65z"/>
			<path style="fill:#E3E7F2;" d="M323.572,61.725l13.676-13.677c3.278-3.278,8.592-3.278,11.87,0l59.662,59.66
				c3.278,3.278,3.278,8.592,0,11.87l-13.677,13.677c-3.278,3.278-8.592,3.278-11.87,0l-59.662-59.66
				c-1.574-1.574-2.459-3.709-2.459-5.935C321.114,65.434,321.998,63.299,323.572,61.725z"/>
		</g>
		<path style="fill:#FFFFFF;" d="M171.16,490.116l318.531-318.531c3.517-3.435,5.278-8.286,4.784-13.178L187.947,464.936
			c-3.133,3.182-7.411,4.974-11.877,4.974c-4.465,0-8.744-1.792-11.877-4.974L29.563,330.305c-2.862-2.802-4.569-6.576-4.784-10.576
			l-12.003,12.003c-3.181,3.133-4.973,7.412-4.973,11.877c0,4.465,1.791,8.744,4.973,11.877l134.631,134.631
			C153.971,496.663,164.596,496.663,171.16,490.116z"/>
	</g>
	<g>
		<polygon style="fill:#FFFFFF;" points="19.664,350.526 96.817,427.678 154.312,485.173 142.444,497.042 84.948,439.546 
			7.796,362.394 		"/>
		<g>
			<path style="fill:#428DFF;" d="M61.207,395.511l-1.602,0.176c-0.556,0.106-1.096,0.285-1.605,0.533
				c-0.508,0.166-0.987,0.407-1.423,0.716c-0.459,0.325-0.894,0.681-1.304,1.067c-1.549,1.593-2.44,3.713-2.492,5.935
				c-0.052,2.827,1.342,5.485,3.698,7.048c2.356,1.563,5.347,1.816,7.932,0.669c1.019-0.41,1.947-1.015,2.733-1.782
				c2.39-2.409,3.102-6.017,1.806-9.154C67.651,397.583,64.601,395.53,61.207,395.511L61.207,395.511z"/>
			<path style="fill:#428DFF;" d="M7.787,362.395l0.025,0.017l23.72,23.721c2.12,2.12,5.211,2.948,8.108,2.172
				c2.897-0.776,5.159-3.039,5.935-5.935c0.776-2.897-0.052-5.987-2.173-8.108l-23.74-23.74l-0.001,0.001
				c-3.271-3.282-3.272-8.591-0.002-11.873l136.303-136.303l30.656-30.656L338.25,20.059c3.316-3.18,8.549-3.18,11.865,0
				l134.648,134.648c3.27,3.284,3.27,8.593,0,11.877l-318.586,318.59c-3.314,3.18-8.547,3.18-11.861,0l-0.017-0.011l-63.417-63.418
				c-3.278-3.278-8.592-3.278-11.87,0c-3.278,3.278-3.278,8.592,0,11.87l63.427,63.429l0.001,0.002
				c4.722,4.723,11.127,7.376,17.805,7.376c6.678,0,13.083-2.654,17.804-7.377l318.582-318.59
				c4.723-4.722,7.377-11.128,7.377-17.807c0-6.679-2.654-13.085-7.377-17.807L361.988,8.19c-9.966-9.508-25.644-9.508-35.611,0
				L179.614,154.953l-20.003-13.337c-6.205-4.108-14.443-3.285-19.713,1.967l-0.828,0.828
				c-24.497-23.73-18.582-36.757-10.348-54.623c6.385-13.844,13.619-29.541,5.385-50.123C115.553-6.72,19.045-0.072,8.106,0.846
				C5.12,1.094,2.492,2.917,1.213,5.628S0.2,11.526,1.908,13.988s4.601,3.827,7.588,3.579c26.295-2.189,97.164-1.328,109.02,28.328
				c5.553,13.885,0.643,24.533-5.041,36.869c-8.55,18.551-19.049,41.575,13.85,73.61c-4.735,5.26-5.323,13.052-1.432,18.964
				l13.334,20.002L7.787,326.78C-2.025,336.624-2.025,352.55,7.787,362.395z M140.393,166.821l10.709-10.705l16.407,10.941
				l-16.179,16.179L140.393,166.821z"/>
			<path style="fill:#428DFF;" d="M93.82,356.46c3.151-3.148,4.921-7.418,4.922-11.872s-1.768-8.725-4.918-11.874l-13.676-13.672
				c-6.641-6.344-17.097-6.344-23.738,0l-13.676,13.672c-3.149,3.147-4.918,7.417-4.918,11.869c0,4.452,1.769,8.722,4.918,11.869
				l13.672,13.68c3.148,3.149,7.418,4.918,11.871,4.918s8.723-1.769,11.871-4.918L93.82,356.46z M81.967,344.567l5.922,5.951
				l-5.934-5.934L81.967,344.567z M54.602,344.584l13.676-13.672l13.668,13.68l-13.668,13.672L54.602,344.584z"/>
			<path style="fill:#428DFF;" d="M102.393,365.026l-13.676,13.672c-6.549,6.561-6.549,17.185,0,23.746l13.676,13.672
				c6.559,6.546,17.179,6.546,23.738,0l13.676-13.672c6.549-6.561,6.549-17.185,0-23.746l-13.676-13.672
				C119.57,358.485,108.954,358.485,102.393,365.026z M114.262,404.247l-13.676-13.68l13.676-13.672l13.684,13.672L114.262,404.247z
				"/>
			<path style="fill:#428DFF;" d="M148.377,462.1c6.559,6.546,17.179,6.546,23.738,0l13.676-13.672
				c6.545-6.559,6.545-17.179,0-23.738l-13.677-13.68c-6.561-6.541-17.177-6.541-23.738,0l-13.676,13.681
				c-6.545,6.559-6.545,17.179,0,23.738L148.377,462.1z M160.246,422.878l13.684,13.672l-13.684,13.681l-13.677-13.673
				L160.246,422.878z"/>
			<path style="fill:#428DFF;" d="M102.393,273.059l-13.676,13.672c-6.545,6.559-6.545,17.179,0,23.738l13.676,13.68
				c6.559,6.546,17.179,6.546,23.738,0l13.676-13.68c6.545-6.559,6.545-17.179,0-23.738l-13.676-13.672
				C119.57,266.518,108.954,266.518,102.393,273.059z M127.938,298.6l-13.676,13.68l-13.676-13.68l13.676-13.672l13.684,13.664
				L127.938,298.6z"/>
			<path style="fill:#428DFF;" d="M148.377,319.042l-13.676,13.672c-3.149,3.147-4.918,7.417-4.918,11.869
				c0,4.452,1.769,8.722,4.918,11.869l13.676,13.68c6.559,6.546,17.179,6.546,23.738,0l13.672-13.672
				c3.151-3.148,4.921-7.418,4.922-11.872c0.001-4.454-1.768-8.725-4.918-11.874l-13.677-13.672
				C165.554,312.502,154.938,312.502,148.377,319.042z M173.934,344.567l5.922,5.951l-5.934-5.934L173.934,344.567z
				 M160.246,358.264l-13.677-13.681l13.676-13.672l13.668,13.681L160.246,358.264z"/>
			<path style="fill:#428DFF;" d="M206.229,421.026c4.452,0.007,8.723-1.76,11.869-4.91l13.676-13.672
				c6.549-6.561,6.549-17.185,0-23.746l-13.676-13.672c-6.561-6.541-17.177-6.541-23.738,0l-13.676,13.672
				c-6.549,6.561-6.549,17.185,0,23.746l13.676,13.672C197.506,419.266,201.777,421.033,206.229,421.026z M206.229,376.895
				l13.684,13.672l-13.684,13.68l-13.676-13.68L206.229,376.895z"/>
			<path style="fill:#428DFF;" d="M148.377,227.067l-13.676,13.68c-6.545,6.559-6.545,17.179,0,23.738l13.676,13.68
				c6.559,6.546,17.179,6.546,23.738,0l13.676-13.68c6.545-6.559,6.545-17.179,0-23.738l-13.677-13.68
				C165.554,220.526,154.938,220.526,148.377,227.067z M173.922,252.616l-13.676,13.68l-13.677-13.68l13.676-13.68l13.684,13.672
				L173.922,252.616z"/>
			<path style="fill:#428DFF;" d="M194.36,273.059l-13.676,13.672c-6.545,6.559-6.545,17.179,0,23.738l13.676,13.68
				c6.559,6.546,17.179,6.546,23.738,0l13.676-13.68c6.545-6.559,6.545-17.179,0-23.738l-13.676-13.672
				C211.537,266.518,200.921,266.518,194.36,273.059z M219.906,298.6l-13.676,13.68l-13.676-13.68l13.676-13.672l13.684,13.664
				L219.906,298.6z"/>
			<path style="fill:#428DFF;" d="M194.36,181.083l-13.676,13.68c-6.545,6.559-6.545,17.179,0,23.738l13.676,13.672
				c6.559,6.546,17.179,6.546,23.738,0l13.676-13.672c6.545-6.559,6.545-17.179,0-23.738l-13.676-13.68
				C211.537,174.543,200.921,174.543,194.36,181.083z M206.229,220.305l-13.676-13.672l13.676-13.68l13.684,13.672L206.229,220.305z
				"/>
			<path style="fill:#428DFF;" d="M240.344,227.067l-13.676,13.68c-6.545,6.559-6.545,17.179,0,23.738l13.676,13.68
				c6.559,6.546,17.179,6.546,23.738,0l13.676-13.68c6.545-6.559,6.545-17.179,0-23.738l-13.676-13.68
				C257.521,220.526,246.905,220.526,240.344,227.067z M265.889,252.616l-13.676,13.68l-13.676-13.68l13.676-13.68l13.684,13.672
				L265.889,252.616z"/>
			<path style="fill:#428DFF;" d="M240.344,135.1l-13.668,13.672c-3.152,3.146-4.925,7.417-4.926,11.871
				c-0.002,4.454,1.768,8.726,4.918,11.875l13.676,13.672c6.559,6.546,17.179,6.546,23.738,0l13.676-13.672
				c3.149-3.147,4.918-7.417,4.918-11.869c0-4.452-1.769-8.722-4.918-11.869l-13.676-13.68
				C257.521,128.559,246.905,128.559,240.344,135.1z M252.213,174.321l-13.676-13.672l13.676-13.681l13.684,13.672L252.213,174.321z
				"/>
			<path style="fill:#428DFF;" d="M286.328,181.083l-13.676,13.68c-6.545,6.559-6.545,17.179,0,23.738l13.676,13.672
				c6.559,6.546,17.179,6.546,23.738,0l13.676-13.672c6.545-6.559,6.545-17.179,0-23.738l-13.676-13.68
				C303.505,174.542,292.888,174.542,286.328,181.083z M298.197,220.305l-13.676-13.672l13.676-13.68l13.684,13.672L298.197,220.305
				z"/>
			<path style="fill:#428DFF;" d="M286.328,89.116l-13.676,13.672c-6.549,6.561-6.549,17.185,0,23.746l13.676,13.672
				c6.559,6.546,17.179,6.546,23.738,0l13.676-13.672c6.549-6.561,6.549-17.185,0-23.746l-13.676-13.672
				C303.505,82.575,292.888,82.575,286.328,89.116z M298.197,128.337l-13.676-13.68l13.676-13.672l13.684,13.672L298.197,128.337z"
				/>
			<path style="fill:#428DFF;" d="M344.18,191.1c4.452,0.007,8.723-1.76,11.869-4.91l13.676-13.672
				c3.149-3.147,4.918-7.417,4.918-11.869c0-4.452-1.769-8.722-4.918-11.869l-13.676-13.68c-6.561-6.541-17.177-6.541-23.738,0
				l-13.668,13.672c-3.152,3.146-4.925,7.417-4.926,11.871c-0.002,4.454,1.768,8.726,4.918,11.875l13.676,13.672
				C335.457,189.34,339.728,191.107,344.18,191.1z M344.18,146.969l13.685,13.672l-13.685,13.68l-13.676-13.672L344.18,146.969z"/>
			<path style="fill:#428DFF;" d="M390.164,237.083c4.452,0.007,8.723-1.76,11.869-4.91l13.68-13.672
				c6.549-6.557,6.549-17.18,0-23.738l-13.68-13.68c-6.561-6.541-17.177-6.541-23.738,0l-13.676,13.68
				c-6.545,6.559-6.545,17.179,0,23.738l13.676,13.672C381.441,235.323,385.712,237.09,390.164,237.083z M390.164,192.952
				l13.689,13.672l-13.689,13.68l-13.676-13.672L390.164,192.952z"/>
			<path style="fill:#428DFF;" d="M436.147,191.1c4.452,0.006,8.723-1.761,11.869-4.91l13.68-13.672
				c3.149-3.147,4.918-7.417,4.918-11.869s-1.769-8.722-4.918-11.869l-13.68-13.68c-6.561-6.541-17.177-6.541-23.738,0l-13.68,13.68
				c-6.541,6.561-6.541,17.177,0,23.738l13.68,13.672C427.425,189.339,431.696,191.106,436.147,191.1z M436.147,146.969
				l13.689,13.672l-13.689,13.68l-13.68-13.672L436.147,146.969z"/>
			<path style="fill:#428DFF;" d="M252.213,375.042c4.452,0.007,8.723-1.76,11.869-4.91l105.643-105.647
				c6.545-6.559,6.545-17.179,0-23.738l-13.676-13.68c-6.561-6.541-17.177-6.541-23.738,0L226.668,332.715
				c-3.149,3.147-4.918,7.417-4.918,11.869c0,4.452,1.769,8.722,4.918,11.869l13.676,13.68
				C243.49,373.283,247.761,375.049,252.213,375.042z M344.18,238.936l13.685,13.672l-0.008,0.008L252.213,358.264l-13.676-13.681
				L344.18,238.936z"/>
			<path style="fill:#428DFF;" d="M356.049,43.133c-6.561-6.541-17.177-6.541-23.738,0l-13.676,13.672
				c-6.545,6.559-6.545,17.179,0,23.738l59.66,59.664c6.559,6.546,17.179,6.546,23.738,0l13.68-13.672
				c6.549-6.561,6.549-17.185,0-23.746L356.049,43.133z M390.164,128.338l-59.66-59.664l13.676-13.672l59.672,59.656
				L390.164,128.338z"/>
		</g>
	</g>
</g>
<g>
</g>
<g>
</g>
<g>
</g>
<g>
</g>
<g>
</g>
<g>
</g>
<g>
</g>
<g>
</g>
<g>
</g>
<g>
</g>
<g>
</g>
<g>
</g>
<g>
</g>
<g>
</g>
<g>
</g>
</svg>
