<?xml version="1.0" encoding="UTF-8" standalone="no"?>
<!DOCTYPE svg PUBLIC "-//W3C//DTD SVG 1.1//EN" "http://www.w3.org/Graphics/SVG/1.1/DTD/svg11.dtd">
<svg version="1.1" xmlns="http://www.w3.org/2000/svg" xmlns:xlink="http://www.w3.org/1999/xlink" preserveAspectRatio="xMidYMid meet" viewBox="0 0 513 513" width="513" height="513"><defs><path d="M331.64 491.02C331.64 483.58 325.61 477.55 318.17 477.55C317 477.55 311.16 477.55 300.65 477.55C300.65 454.34 300.65 441.44 300.65 438.87C300.65 431.42 294.62 425.39 287.17 425.39C279.73 425.39 273.7 431.42 273.7 438.87C273.7 444.08 273.7 485.81 273.7 491.02C273.7 498.47 279.73 504.5 287.17 504.5C293.37 504.5 315.07 504.5 318.17 504.5C325.61 504.5 331.64 498.47 331.64 491.02Z" id="b1saS4spFv"></path><path d="M331.64 491.02C331.64 483.58 325.61 477.55 318.17 477.55C317 477.55 311.16 477.55 300.65 477.55C300.65 454.34 300.65 441.44 300.65 438.87C300.65 431.42 294.62 425.39 287.17 425.39C279.73 425.39 273.7 431.42 273.7 438.87C273.7 444.08 273.7 485.81 273.7 491.02C273.7 498.47 279.73 504.5 287.17 504.5C293.37 504.5 315.07 504.5 318.17 504.5C325.61 504.5 331.64 498.47 331.64 491.02Z" id="b2rMydMUuJ"></path><path d="M180.36 491.02C180.36 483.58 186.39 477.55 193.83 477.55C195 477.55 200.84 477.55 211.35 477.55C211.35 454.34 211.35 441.44 211.35 438.87C211.35 431.42 217.38 425.39 224.83 425.39C232.27 425.39 238.3 431.42 238.3 438.87C238.3 444.08 238.3 485.81 238.3 491.02C238.3 498.47 232.27 504.5 224.83 504.5C218.63 504.5 196.93 504.5 193.83 504.5C186.39 504.5 180.36 498.47 180.36 491.02Z" id="a2a7sxflSZ"></path><path d="M180.36 491.02C180.36 483.58 186.39 477.55 193.83 477.55C195 477.55 200.84 477.55 211.35 477.55C211.35 454.34 211.35 441.44 211.35 438.87C211.35 431.42 217.38 425.39 224.83 425.39C232.27 425.39 238.3 431.42 238.3 438.87C238.3 444.08 238.3 485.81 238.3 491.02C238.3 498.47 232.27 504.5 224.83 504.5C218.63 504.5 196.93 504.5 193.83 504.5C186.39 504.5 180.36 498.47 180.36 491.02Z" id="f7Ai4DyoZH"></path><path d="M368.22 328.98C425.95 391.09 410.04 430.05 320.51 445.87C323.69 438.08 339.59 399.12 368.22 328.98Z" id="ekNWLxY2i"></path><path d="M368.22 328.98C425.95 391.09 410.04 430.05 320.51 445.87C323.69 438.08 339.59 399.12 368.22 328.98Z" id="bGnpwWJ2A"></path><path d="M143.78 328.98C86.05 391.09 101.96 430.05 191.49 445.87C188.31 438.08 172.41 399.12 143.78 328.98Z" id="a2zybjVguh"></path><path d="M143.78 328.98C86.05 391.09 101.96 430.05 191.49 445.87C188.31 438.08 172.41 399.12 143.78 328.98Z" id="b2rrWGsGkU"></path><path d="M273.7 482.18C283.01 481.08 292.02 479.13 300.65 476.41C300.65 472.66 300.65 442.62 300.65 438.87C300.65 431.42 294.62 425.39 287.17 425.39C279.73 425.39 273.7 431.42 273.7 438.87C273.7 443.2 273.7 477.85 273.7 482.18Z" id="e4NFrw51dI"></path><path d="M273.7 482.18C283.01 481.08 292.02 479.13 300.65 476.41C300.65 472.66 300.65 442.62 300.65 438.87C300.65 431.42 294.62 425.39 287.17 425.39C279.73 425.39 273.7 431.42 273.7 438.87C273.7 443.2 273.7 477.85 273.7 482.18Z" id="b1TlHqmoNU"></path><path d="M211.35 476.41C219.98 479.13 229 481.08 238.3 482.18C238.3 477.85 238.3 443.2 238.3 438.87C238.3 431.42 232.27 425.39 224.83 425.39C217.39 425.39 211.35 431.42 211.35 438.87C211.35 442.62 211.35 472.66 211.35 476.41Z" id="c3BjDvquP1"></path><path d="M211.35 476.41C219.98 479.13 229 481.08 238.3 482.18C238.3 477.85 238.3 443.2 238.3 438.87C238.3 431.42 232.27 425.39 224.83 425.39C217.39 425.39 211.35 431.42 211.35 438.87C211.35 442.62 211.35 472.66 211.35 476.41Z" id="abXAIPe35"></path><path d="M256 463.21C191.39 463.21 139.02 416.38 139.02 358.6C139.02 300.82 191.39 253.98 256 253.98C320.61 253.98 372.98 300.82 372.98 358.6C372.98 416.38 320.61 463.21 256 463.21Z" id="annA0YCU1"></path><path d="M256 463.21C191.39 463.21 139.02 416.38 139.02 358.6C139.02 300.82 191.39 253.98 256 253.98C320.61 253.98 372.98 300.82 372.98 358.6C372.98 416.38 320.61 463.21 256 463.21Z" id="e2GAEHT2WY"></path><path d="M104.14 206.74C104.14 290.61 172.13 358.6 256 358.6C339.87 358.6 407.86 290.61 407.86 206.74C407.86 122.87 339.87 54.88 256 54.88C172.13 54.88 104.14 122.87 104.14 206.74Z" id="aOScCVp8h"></path><path d="M104.14 206.74C104.14 290.61 172.13 358.6 256 358.6C339.87 358.6 407.86 290.61 407.86 206.74C407.86 122.87 339.87 54.88 256 54.88C172.13 54.88 104.14 122.87 104.14 206.74Z" id="beYXhbUAn"></path><path d="M256 7.5C357.64 7.5 347.75 84.92 415.06 84.92C441.03 84.92 438.88 99.21 426.31 122.68C403.6 122.68 290.06 122.68 85.69 122.68C75.88 97.51 79.63 84.92 96.94 84.92C164.25 84.92 154.36 7.5 256 7.5Z" id="aXxGiZJj"></path><path d="M256 7.5C357.64 7.5 347.75 84.92 415.06 84.92C441.03 84.92 438.88 99.21 426.31 122.68C403.6 122.68 290.06 122.68 85.69 122.68C75.88 97.51 79.63 84.92 96.94 84.92C164.25 84.92 154.36 7.5 256 7.5Z" id="bZGJm2uv9"></path><path d="M110.03 164C100.79 148.37 91.96 134.38 85.69 122.68C109.89 119.71 121.72 116.52 121.72 116.52C151.31 109.44 169.2 90.42 183.02 75.72C201.49 56.09 214.83 41.91 256 41.91C297.17 41.91 310.51 56.09 328.98 75.72C342.8 90.42 360.69 109.44 390.28 116.52C390.28 116.52 402.12 119.71 426.31 122.68C420.05 134.38 411.21 148.37 401.97 164C372.77 164 139.23 164 110.03 164Z" id="a3xM4GHYAS"></path><path d="M110.03 164C100.79 148.37 91.96 134.38 85.69 122.68C109.89 119.71 121.72 116.52 121.72 116.52C151.31 109.44 169.2 90.42 183.02 75.72C201.49 56.09 214.83 41.91 256 41.91C297.17 41.91 310.51 56.09 328.98 75.72C342.8 90.42 360.69 109.44 390.28 116.52C390.28 116.52 402.12 119.71 426.31 122.68C420.05 134.38 411.21 148.37 401.97 164C372.77 164 139.23 164 110.03 164Z" id="c2v6JfAJJJ"></path><path d="M210.7 195.69C204.07 194.08 195.27 192.89 183.75 192.89C172.23 192.89 163.43 194.08 156.8 195.69C145.5 198.44 138.08 209.98 139.64 222.26C142.46 244.39 151.94 279.18 183.75 279.18C215.56 279.18 225.04 244.39 227.86 222.26C229.42 209.98 221.99 198.44 210.7 195.69Z" id="br6fcHI3"></path><path d="M210.7 195.69C204.07 194.08 195.27 192.89 183.75 192.89C172.23 192.89 163.43 194.08 156.8 195.69C145.5 198.44 138.08 209.98 139.64 222.26C142.46 244.39 151.94 279.18 183.75 279.18C215.56 279.18 225.04 244.39 227.86 222.26C229.42 209.98 221.99 198.44 210.7 195.69Z" id="bbiTRQUuQ"></path><path d="M205.77 262.95C212.47 262.95 245.95 262.95 306.23 262.95C290 295 273.26 311.03 256 311.03C230.11 311.03 208.76 290.03 205.77 262.95Z" id="b1VBOyFBAH"></path><path d="M205.77 262.95C212.47 262.95 245.95 262.95 306.23 262.95C290 295 273.26 311.03 256 311.03C230.11 311.03 208.76 290.03 205.77 262.95Z" id="c3FUzaPe"></path><path d="M256 278.06C236.71 278.06 219.12 272.35 205.77 262.95C205.53 260.8 205.41 258.63 205.41 256.41C205.41 226.24 228.06 201.78 256 201.78C283.94 201.78 306.59 226.24 306.59 256.41C306.59 258.63 306.47 260.8 306.23 262.95C292.88 272.35 275.29 278.06 256 278.06Z" id="a55AhQ34EC"></path><path d="M256 278.06C236.71 278.06 219.12 272.35 205.77 262.95C205.53 260.8 205.41 258.63 205.41 256.41C205.41 226.24 228.06 201.78 256 201.78C283.94 201.78 306.59 226.24 306.59 256.41C306.59 258.63 306.47 260.8 306.23 262.95C292.88 272.35 275.29 278.06 256 278.06Z" id="aARptgOwW"></path><path d="M401.75 164C372.6 164 139.4 164 110.25 164C107.89 172.04 106.19 180.35 105.19 188.89C165.51 188.89 376.65 188.89 406.81 188.89C405.81 180.35 404.11 172.04 401.75 164Z" id="i6CIT7JDb"></path><path d="M401.75 164C372.6 164 139.4 164 110.25 164C107.89 172.04 106.19 180.35 105.19 188.89C165.51 188.89 376.65 188.89 406.81 188.89C405.81 180.35 404.11 172.04 401.75 164Z" id="a1lw95E5aI"></path><path d="M332.02 242.28C332.02 246.43 335.38 249.78 339.52 249.78C343.67 249.78 347.02 246.43 347.02 242.28C347.02 240.44 347.02 225.7 347.02 223.85C347.02 219.71 343.67 216.35 339.52 216.35C335.38 216.35 332.02 219.71 332.02 223.85C332.02 225.7 332.02 240.44 332.02 242.28Z" id="b3p4xAZ3bt"></path><path d="M332.02 242.28C332.02 246.43 335.38 249.78 339.52 249.78C343.67 249.78 347.02 246.43 347.02 242.28C347.02 240.44 347.02 225.7 347.02 223.85C347.02 219.71 343.67 216.35 339.52 216.35C335.38 216.35 332.02 219.71 332.02 223.85C332.02 225.7 332.02 240.44 332.02 242.28Z" id="hnEKfvPSX"></path><path d="M415.06 77.42C388.11 77.42 375.48 64 359.5 47.01C338.78 24.98 315.28 0 256 0C209.63 0 185.77 15.74 170.17 29.45C167.05 32.18 166.75 36.92 169.48 40.03C172.21 43.14 176.95 43.45 180.06 40.72C193.69 28.74 214.64 15 256 15C308.8 15 329.02 36.5 348.58 57.29C364.82 74.56 381.62 92.42 415.06 92.42C425.19 92.42 427.12 94.8 427.41 95.28C428.14 96.5 428.91 100.73 422.05 114.57C414.22 113.52 406.4 112.31 398.65 110.72C379.23 106.75 362.68 97.97 348.18 84.51C327.37 65.19 310.38 42.05 280.7 36.47C272.57 34.95 264.27 34.41 256 34.41C248.77 34.41 241.5 34.82 234.34 35.95C205.97 40.41 193.09 54.07 177.56 70.58C164.12 84.88 147.39 102.67 119.98 109.22C114.38 110.56 108.79 111.81 103.1 112.68C98.71 113.23 94.34 113.99 89.95 114.57C83.09 100.73 83.86 96.5 84.59 95.28C84.88 94.8 86.82 92.42 96.94 92.42C127.53 92.42 144.15 77.6 159.84 61.08C162.7 58.08 162.57 53.33 159.57 50.48C156.57 47.63 151.82 47.75 148.97 50.75C134.61 65.86 121.66 77.42 96.94 77.42C92.21 77.42 77.8 77.42 71.72 87.57C65.54 97.91 71.6 112.25 79.08 126.22C83.37 134.23 99.58 161.09 102.11 165.34C98.49 178.8 96.64 192.71 96.64 206.74C96.64 247.39 112.58 287.09 140.59 316.52C140.49 316.76 140.37 317 140.26 317.24C133.2 312.95 126.26 310.78 119.52 310.78C102.03 310.78 88.95 325.81 86.99 348.18C85.18 368.92 92.85 391.34 108.05 409.69C120.79 425.07 145.15 445 188.96 453.03C193.71 455.78 198.69 458.23 203.85 460.39C203.85 461.03 203.85 464.25 203.85 470.05C197.84 470.05 194.5 470.05 193.83 470.05C182.27 470.05 172.86 479.46 172.86 491.02C172.86 502.59 182.27 512 193.83 512C196.93 512 221.73 512 224.83 512C236.39 512 245.8 502.59 245.8 491.02C245.8 488.96 245.8 472.4 245.8 470.34C249.17 470.58 252.57 470.71 256 470.71C259.43 470.71 262.83 470.58 266.2 470.34C266.2 472.4 266.2 488.96 266.2 491.02C266.2 502.59 275.61 512 287.17 512C290.27 512 315.07 512 318.17 512C329.73 512 339.14 502.59 339.14 491.02C339.14 479.46 329.73 470.05 318.17 470.05C317.5 470.05 314.16 470.05 308.15 470.05C308.15 464.25 308.15 461.03 308.15 460.39C313.31 458.23 318.29 455.77 323.04 453.03C366.91 444.98 399.86 423.19 415.88 391.55C417.75 387.86 416.27 383.34 412.58 381.47C408.88 379.6 404.37 381.08 402.5 384.78C392.9 403.73 375.95 418.66 353.43 428.43C365.58 414.7 373.99 398.54 377.93 381.22C377.94 381.18 377.95 381.14 377.96 381.1C380.38 370.43 381.04 359.39 379.98 348.49C379.97 348.44 379.97 348.39 379.96 348.35C379.4 342.73 378.38 337.2 376.9 331.77C385.35 325.86 393.02 324.26 398.79 327.29C406.86 331.53 411.37 344.41 410.01 359.34C409.64 363.47 412.68 367.12 416.8 367.49C420.92 367.86 424.57 364.82 424.95 360.7C426.88 339.47 419.35 321.15 405.77 314.01C399.63 310.79 387.71 307.54 371.74 317.24C371.63 317 371.51 316.76 371.41 316.52C398.63 287.92 415.36 249.24 415.36 206.74C415.36 192.7 413.51 178.8 409.89 165.34C412.42 161.09 428.63 134.23 432.92 126.22C440.4 112.25 446.47 97.91 440.28 87.57C434.2 77.42 419.8 77.42 415.06 77.42ZM193.83 497C190.54 497 187.86 494.32 187.86 491.02C187.86 487.73 190.54 485.05 193.83 485.05C195.58 485.05 209.6 485.05 211.35 485.05C215.49 485.05 218.85 481.69 218.85 477.55C218.85 476.36 218.85 466.82 218.85 465.63C222.78 466.74 226.77 467.67 230.8 468.41C230.8 469.92 230.8 477.46 230.8 491.02C229.01 495.01 227.02 497 224.83 497C221.73 497 196.93 497 193.83 497ZM318.17 497C315.07 497 290.27 497 287.17 497C283.88 497 281.2 494.32 281.2 491.02C281.2 488.76 281.2 470.67 281.2 468.41C285.23 467.67 289.22 466.74 293.15 465.63C293.15 466.82 293.15 476.36 293.15 477.55C293.15 481.69 296.51 485.05 300.65 485.05C301.82 485.05 307.66 485.05 318.17 485.05C322.15 486.84 324.14 488.83 324.14 491.02C324.14 494.32 321.46 497 318.17 497ZM299.09 256.41C299.09 257.18 299.07 257.95 299.04 258.72C298.63 258.98 297.19 259.85 296.88 260.03C294.42 261.46 291.86 262.74 289.25 263.87C278.79 268.39 267.39 270.56 256 270.56C243.7 270.56 231.26 268.01 220.14 262.68C217.68 261.5 215.28 260.18 212.97 258.73C212.94 257.95 212.91 257.18 212.91 256.41C212.91 242.63 218.64 228.77 229.09 219.64C236.53 213.14 246.08 209.28 256 209.28C279.76 209.28 299.09 230.42 299.09 256.41ZM217.69 278.01C218.45 278.33 219.21 278.64 219.98 278.94C228.45 282.23 237.4 284.24 246.44 285.11C253.21 285.76 260.04 285.7 266.8 284.99C276.17 284 285.57 281.68 294.31 278.01C287.1 293.28 272.53 303.53 256 303.53C239.47 303.53 224.9 293.28 217.69 278.01ZM198.78 267.11C198.8 267.26 198.82 267.42 198.85 267.57C194.46 270.33 189.48 271.68 183.75 271.68C158.05 271.68 149.68 241.76 147.08 221.31C146 212.86 151.05 204.81 158.57 202.98C165.64 201.26 174.11 200.39 183.75 200.39C193.39 200.39 201.86 201.26 208.92 202.98C212.56 203.86 215.74 206.26 217.85 209.58C217.89 209.65 216.89 210.52 216.79 210.62C202.24 224.91 195.65 246.18 198.64 266.26C198.69 266.54 198.73 266.83 198.78 267.11ZM155.03 188.4C139.95 192.07 130.14 207.03 132.2 223.21C133.45 233.02 135.46 241.76 138.16 249.4C130.96 252.9 124.83 255.29 120.59 256.78C114.8 241.18 111.64 224.33 111.64 206.74C111.64 194.81 113.1 182.98 115.98 171.5C126.06 171.5 206.67 171.5 216.75 171.5C214.2 177 211.33 182.35 208.16 187.48C200.93 186.1 192.75 185.39 183.75 185.39C172.92 185.39 163.25 186.4 155.03 188.4ZM135.1 331.77C133.62 337.2 132.6 342.74 132.04 348.35C132.04 348.4 132.03 348.45 132.03 348.49C130.91 359.37 131.63 370.44 134.04 381.1C134.05 381.14 134.06 381.18 134.07 381.22C138.01 398.55 146.43 414.71 158.59 428.45C114.28 409.2 99.87 373.1 101.94 349.49C102.89 338.55 108.08 325.78 119.52 325.78C124.15 325.78 129.47 327.84 135.1 331.77ZM153.4 392.48C145.95 374.79 144.58 354.88 149.45 336.31C149.89 334.64 151.75 328.82 152.2 327.65C176.93 348.94 207.2 361.94 239.52 365.25C250.38 366.37 261.63 366.61 272.48 365.25C304.8 361.94 335.07 348.94 359.8 327.65C360.23 328.8 360.64 329.95 361.02 331.1C367.65 351 366.69 373.16 358.6 392.48C346.23 421.86 318.27 444.54 283.69 452.56C268.51 456.09 252.66 456.65 237.26 454.28C234.25 453.82 231.27 453.25 228.31 452.56C193.73 444.54 165.77 421.86 153.4 392.48ZM126.55 270.59C131.13 268.95 137.28 266.5 144.42 263.04C153.52 278.49 166.86 286.68 183.75 286.68C190.82 286.68 197.32 285.2 203.18 282.3C212.42 303.85 232.76 318.53 256 318.53C285.43 318.53 310.23 294.99 313.69 263.77C313.95 261.36 314.09 258.89 314.09 256.41C314.09 222.15 288.03 194.28 256 194.28C246.67 194.28 237.86 196.66 230.04 200.86C227.95 197.76 225.35 195.09 222.37 192.97C226.45 186.1 230.06 178.92 233.14 171.5C249.43 171.5 379.73 171.5 396.02 171.5C398.9 182.98 400.36 194.81 400.36 206.74C400.36 281.36 343.45 342.94 270.74 350.35C261 351.43 251 351.43 241.26 350.35C190.88 345.22 148.09 314.07 126.55 270.59ZM97.64 128.64C97.73 128.63 97.82 128.62 97.91 128.6C106.55 127.34 115.07 125.8 123.56 123.79C149.79 117.49 170.43 100.05 188.49 80.85C206.31 61.92 218.08 49.41 256 49.41C293.92 49.41 305.69 61.91 323.52 80.86C340.38 98.78 358.59 114.93 382.64 122.21C392.89 125.32 403.57 127.06 414.14 128.61C414.22 128.62 414.29 128.63 414.36 128.64C411.34 133.85 400.01 152.62 397.7 156.5C341.02 156.5 142.64 156.5 114.3 156.5C111.99 152.62 100.66 133.86 97.64 128.64Z" id="b5N4KLAZr"></path><path d="M415.06 77.42C388.11 77.42 375.48 64 359.5 47.01C338.78 24.98 315.28 0 256 0C209.63 0 185.77 15.74 170.17 29.45C167.05 32.18 166.75 36.92 169.48 40.03C172.21 43.14 176.95 43.45 180.06 40.72C193.69 28.74 214.64 15 256 15C308.8 15 329.02 36.5 348.58 57.29C364.82 74.56 381.62 92.42 415.06 92.42C425.19 92.42 427.12 94.8 427.41 95.28C428.14 96.5 428.91 100.73 422.05 114.57C414.22 113.52 406.4 112.31 398.65 110.72C379.23 106.75 362.68 97.97 348.18 84.51C327.37 65.19 310.38 42.05 280.7 36.47C272.57 34.95 264.27 34.41 256 34.41C248.77 34.41 241.5 34.82 234.34 35.95C205.97 40.41 193.09 54.07 177.56 70.58C164.12 84.88 147.39 102.67 119.98 109.22C114.38 110.56 108.79 111.81 103.1 112.68C98.71 113.23 94.34 113.99 89.95 114.57C83.09 100.73 83.86 96.5 84.59 95.28C84.88 94.8 86.82 92.42 96.94 92.42C127.53 92.42 144.15 77.6 159.84 61.08C162.7 58.08 162.57 53.33 159.57 50.48C156.57 47.63 151.82 47.75 148.97 50.75C134.61 65.86 121.66 77.42 96.94 77.42C92.21 77.42 77.8 77.42 71.72 87.57C65.54 97.91 71.6 112.25 79.08 126.22C83.37 134.23 99.58 161.09 102.11 165.34C98.49 178.8 96.64 192.71 96.64 206.74C96.64 247.39 112.58 287.09 140.59 316.52C140.49 316.76 140.37 317 140.26 317.24C133.2 312.95 126.26 310.78 119.52 310.78C102.03 310.78 88.95 325.81 86.99 348.18C85.18 368.92 92.85 391.34 108.05 409.69C120.79 425.07 145.15 445 188.96 453.03C193.71 455.78 198.69 458.23 203.85 460.39C203.85 461.03 203.85 464.25 203.85 470.05C197.84 470.05 194.5 470.05 193.83 470.05C182.27 470.05 172.86 479.46 172.86 491.02C172.86 502.59 182.27 512 193.83 512C196.93 512 221.73 512 224.83 512C236.39 512 245.8 502.59 245.8 491.02C245.8 488.96 245.8 472.4 245.8 470.34C249.17 470.58 252.57 470.71 256 470.71C259.43 470.71 262.83 470.58 266.2 470.34C266.2 472.4 266.2 488.96 266.2 491.02C266.2 502.59 275.61 512 287.17 512C290.27 512 315.07 512 318.17 512C329.73 512 339.14 502.59 339.14 491.02C339.14 479.46 329.73 470.05 318.17 470.05C317.5 470.05 314.16 470.05 308.15 470.05C308.15 464.25 308.15 461.03 308.15 460.39C313.31 458.23 318.29 455.77 323.04 453.03C366.91 444.98 399.86 423.19 415.88 391.55C417.75 387.86 416.27 383.34 412.58 381.47C408.88 379.6 404.37 381.08 402.5 384.78C392.9 403.73 375.95 418.66 353.43 428.43C365.58 414.7 373.99 398.54 377.93 381.22C377.94 381.18 377.95 381.14 377.96 381.1C380.38 370.43 381.04 359.39 379.98 348.49C379.97 348.44 379.97 348.39 379.96 348.35C379.4 342.73 378.38 337.2 376.9 331.77C385.35 325.86 393.02 324.26 398.79 327.29C406.86 331.53 411.37 344.41 410.01 359.34C409.64 363.47 412.68 367.12 416.8 367.49C420.92 367.86 424.57 364.82 424.95 360.7C426.88 339.47 419.35 321.15 405.77 314.01C399.63 310.79 387.71 307.54 371.74 317.24C371.63 317 371.51 316.76 371.41 316.52C398.63 287.92 415.36 249.24 415.36 206.74C415.36 192.7 413.51 178.8 409.89 165.34C412.42 161.09 428.63 134.23 432.92 126.22C440.4 112.25 446.47 97.91 440.28 87.57C434.2 77.42 419.8 77.42 415.06 77.42ZM193.83 497C190.54 497 187.86 494.32 187.86 491.02C187.86 487.73 190.54 485.05 193.83 485.05C195.58 485.05 209.6 485.05 211.35 485.05C215.49 485.05 218.85 481.69 218.85 477.55C218.85 476.36 218.85 466.82 218.85 465.63C222.78 466.74 226.77 467.67 230.8 468.41C230.8 469.92 230.8 477.46 230.8 491.02C229.01 495.01 227.02 497 224.83 497C221.73 497 196.93 497 193.83 497ZM318.17 497C315.07 497 290.27 497 287.17 497C283.88 497 281.2 494.32 281.2 491.02C281.2 488.76 281.2 470.67 281.2 468.41C285.23 467.67 289.22 466.74 293.15 465.63C293.15 466.82 293.15 476.36 293.15 477.55C293.15 481.69 296.51 485.05 300.65 485.05C301.82 485.05 307.66 485.05 318.17 485.05C322.15 486.84 324.14 488.83 324.14 491.02C324.14 494.32 321.46 497 318.17 497ZM299.09 256.41C299.09 257.18 299.07 257.95 299.04 258.72C298.63 258.98 297.19 259.85 296.88 260.03C294.42 261.46 291.86 262.74 289.25 263.87C278.79 268.39 267.39 270.56 256 270.56C243.7 270.56 231.26 268.01 220.14 262.68C217.68 261.5 215.28 260.18 212.97 258.73C212.94 257.95 212.91 257.18 212.91 256.41C212.91 242.63 218.64 228.77 229.09 219.64C236.53 213.14 246.08 209.28 256 209.28C279.76 209.28 299.09 230.42 299.09 256.41ZM217.69 278.01C218.45 278.33 219.21 278.64 219.98 278.94C228.45 282.23 237.4 284.24 246.44 285.11C253.21 285.76 260.04 285.7 266.8 284.99C276.17 284 285.57 281.68 294.31 278.01C287.1 293.28 272.53 303.53 256 303.53C239.47 303.53 224.9 293.28 217.69 278.01ZM198.78 267.11C198.8 267.26 198.82 267.42 198.85 267.57C194.46 270.33 189.48 271.68 183.75 271.68C158.05 271.68 149.68 241.76 147.08 221.31C146 212.86 151.05 204.81 158.57 202.98C165.64 201.26 174.11 200.39 183.75 200.39C193.39 200.39 201.86 201.26 208.92 202.98C212.56 203.86 215.74 206.26 217.85 209.58C217.89 209.65 216.89 210.52 216.79 210.62C202.24 224.91 195.65 246.18 198.64 266.26C198.69 266.54 198.73 266.83 198.78 267.11ZM155.03 188.4C139.95 192.07 130.14 207.03 132.2 223.21C133.45 233.02 135.46 241.76 138.16 249.4C130.96 252.9 124.83 255.29 120.59 256.78C114.8 241.18 111.64 224.33 111.64 206.74C111.64 194.81 113.1 182.98 115.98 171.5C126.06 171.5 206.67 171.5 216.75 171.5C214.2 177 211.33 182.35 208.16 187.48C200.93 186.1 192.75 185.39 183.75 185.39C172.92 185.39 163.25 186.4 155.03 188.4ZM135.1 331.77C133.62 337.2 132.6 342.74 132.04 348.35C132.04 348.4 132.03 348.45 132.03 348.49C130.91 359.37 131.63 370.44 134.04 381.1C134.05 381.14 134.06 381.18 134.07 381.22C138.01 398.55 146.43 414.71 158.59 428.45C114.28 409.2 99.87 373.1 101.94 349.49C102.89 338.55 108.08 325.78 119.52 325.78C124.15 325.78 129.47 327.84 135.1 331.77ZM153.4 392.48C145.95 374.79 144.58 354.88 149.45 336.31C149.89 334.64 151.75 328.82 152.2 327.65C176.93 348.94 207.2 361.94 239.52 365.25C250.38 366.37 261.63 366.61 272.48 365.25C304.8 361.94 335.07 348.94 359.8 327.65C360.23 328.8 360.64 329.95 361.02 331.1C367.65 351 366.69 373.16 358.6 392.48C346.23 421.86 318.27 444.54 283.69 452.56C268.51 456.09 252.66 456.65 237.26 454.28C234.25 453.82 231.27 453.25 228.31 452.56C193.73 444.54 165.77 421.86 153.4 392.48ZM126.55 270.59C131.13 268.95 137.28 266.5 144.42 263.04C153.52 278.49 166.86 286.68 183.75 286.68C190.82 286.68 197.32 285.2 203.18 282.3C212.42 303.85 232.76 318.53 256 318.53C285.43 318.53 310.23 294.99 313.69 263.77C313.95 261.36 314.09 258.89 314.09 256.41C314.09 222.15 288.03 194.28 256 194.28C246.67 194.28 237.86 196.66 230.04 200.86C227.95 197.76 225.35 195.09 222.37 192.97C226.45 186.1 230.06 178.92 233.14 171.5C249.43 171.5 379.73 171.5 396.02 171.5C398.9 182.98 400.36 194.81 400.36 206.74C400.36 281.36 343.45 342.94 270.74 350.35C261 351.43 251 351.43 241.26 350.35C190.88 345.22 148.09 314.07 126.55 270.59ZM97.64 128.64C97.73 128.63 97.82 128.62 97.91 128.6C106.55 127.34 115.07 125.8 123.56 123.79C149.79 117.49 170.43 100.05 188.49 80.85C206.31 61.92 218.08 49.41 256 49.41C293.92 49.41 305.69 61.91 323.52 80.86C340.38 98.78 358.59 114.93 382.64 122.21C392.89 125.32 403.57 127.06 414.14 128.61C414.22 128.62 414.29 128.63 414.36 128.64C411.34 133.85 400.01 152.62 397.7 156.5C341.02 156.5 142.64 156.5 114.3 156.5C111.99 152.62 100.66 133.86 97.64 128.64Z" id="aXzHXsa7Q"></path></defs><g><g><g><use xlink:href="#b1saS4spFv" opacity="1" fill="#fadc60" fill-opacity="1"></use><g><use xlink:href="#b1saS4spFv" opacity="1" fill-opacity="0" stroke="#000000" stroke-width="1" stroke-opacity="0"></use></g></g><g><use xlink:href="#b2rMydMUuJ" opacity="1" fill="#000000" fill-opacity="0"></use><g><use xlink:href="#b2rMydMUuJ" opacity="1" fill-opacity="0" stroke="#000000" stroke-width="1" stroke-opacity="0"></use></g></g><g><use xlink:href="#a2a7sxflSZ" opacity="1" fill="#fadc60" fill-opacity="1"></use><g><use xlink:href="#a2a7sxflSZ" opacity="1" fill-opacity="0" stroke="#000000" stroke-width="1" stroke-opacity="0"></use></g></g><g><use xlink:href="#f7Ai4DyoZH" opacity="1" fill="#000000" fill-opacity="0"></use><g><use xlink:href="#f7Ai4DyoZH" opacity="1" fill-opacity="0" stroke="#000000" stroke-width="1" stroke-opacity="0"></use></g></g><g><use xlink:href="#ekNWLxY2i" opacity="1" fill="#9fdff9" fill-opacity="1"></use><g><use xlink:href="#ekNWLxY2i" opacity="1" fill-opacity="0" stroke="#000000" stroke-width="1" stroke-opacity="0"></use></g></g><g><use xlink:href="#bGnpwWJ2A" opacity="1" fill="#000000" fill-opacity="0"></use><g><use xlink:href="#bGnpwWJ2A" opacity="1" fill-opacity="0" stroke="#000000" stroke-width="1" stroke-opacity="0"></use></g></g><g><use xlink:href="#a2zybjVguh" opacity="1" fill="#9fdff9" fill-opacity="1"></use><g><use xlink:href="#a2zybjVguh" opacity="1" fill-opacity="0" stroke="#000000" stroke-width="1" stroke-opacity="0"></use></g></g><g><use xlink:href="#b2rrWGsGkU" opacity="1" fill="#000000" fill-opacity="0"></use><g><use xlink:href="#b2rrWGsGkU" opacity="1" fill-opacity="0" stroke="#000000" stroke-width="1" stroke-opacity="0"></use></g></g><g><use xlink:href="#e4NFrw51dI" opacity="1" fill="#f2c42c" fill-opacity="1"></use><g><use xlink:href="#e4NFrw51dI" opacity="1" fill-opacity="0" stroke="#000000" stroke-width="1" stroke-opacity="0"></use></g></g><g><use xlink:href="#b1TlHqmoNU" opacity="1" fill="#000000" fill-opacity="0"></use><g><use xlink:href="#b1TlHqmoNU" opacity="1" fill-opacity="0" stroke="#000000" stroke-width="1" stroke-opacity="0"></use></g></g><g><use xlink:href="#c3BjDvquP1" opacity="1" fill="#f2c42c" fill-opacity="1"></use><g><use xlink:href="#c3BjDvquP1" opacity="1" fill-opacity="0" stroke="#000000" stroke-width="1" stroke-opacity="0"></use></g></g><g><use xlink:href="#abXAIPe35" opacity="1" fill="#000000" fill-opacity="0"></use><g><use xlink:href="#abXAIPe35" opacity="1" fill-opacity="0" stroke="#000000" stroke-width="1" stroke-opacity="0"></use></g></g><g><use xlink:href="#annA0YCU1" opacity="1" fill="#52c6f4" fill-opacity="1"></use><g><use xlink:href="#annA0YCU1" opacity="1" fill-opacity="0" stroke="#000000" stroke-width="1" stroke-opacity="0"></use></g></g><g><use xlink:href="#e2GAEHT2WY" opacity="1" fill="#000000" fill-opacity="0"></use><g><use xlink:href="#e2GAEHT2WY" opacity="1" fill-opacity="0" stroke="#000000" stroke-width="1" stroke-opacity="0"></use></g></g><g><use xlink:href="#aOScCVp8h" opacity="1" fill="#52c6f4" fill-opacity="1"></use><g><use xlink:href="#aOScCVp8h" opacity="1" fill-opacity="0" stroke="#000000" stroke-width="1" stroke-opacity="0"></use></g></g><g><use xlink:href="#beYXhbUAn" opacity="1" fill="#000000" fill-opacity="0"></use><g><use xlink:href="#beYXhbUAn" opacity="1" fill-opacity="0" stroke="#000000" stroke-width="1" stroke-opacity="0"></use></g></g><g><use xlink:href="#aXxGiZJj" opacity="1" fill="#fadc60" fill-opacity="1"></use><g><use xlink:href="#aXxGiZJj" opacity="1" fill-opacity="0" stroke="#000000" stroke-width="1" stroke-opacity="0"></use></g></g><g><use xlink:href="#bZGJm2uv9" opacity="1" fill="#000000" fill-opacity="0"></use><g><use xlink:href="#bZGJm2uv9" opacity="1" fill-opacity="0" stroke="#000000" stroke-width="1" stroke-opacity="0"></use></g></g><g><use xlink:href="#a3xM4GHYAS" opacity="1" fill="#3a484a" fill-opacity="1"></use><g><use xlink:href="#a3xM4GHYAS" opacity="1" fill-opacity="0" stroke="#000000" stroke-width="1" stroke-opacity="0"></use></g></g><g><use xlink:href="#c2v6JfAJJJ" opacity="1" fill="#000000" fill-opacity="0"></use><g><use xlink:href="#c2v6JfAJJJ" opacity="1" fill-opacity="0" stroke="#000000" stroke-width="1" stroke-opacity="0"></use></g></g><g><use xlink:href="#br6fcHI3" opacity="1" fill="#3a484a" fill-opacity="1"></use><g><use xlink:href="#br6fcHI3" opacity="1" fill-opacity="0" stroke="#000000" stroke-width="1" stroke-opacity="0"></use></g></g><g><use xlink:href="#bbiTRQUuQ" opacity="1" fill="#000000" fill-opacity="0"></use><g><use xlink:href="#bbiTRQUuQ" opacity="1" fill-opacity="0" stroke="#000000" stroke-width="1" stroke-opacity="0"></use></g></g><g><use xlink:href="#b1VBOyFBAH" opacity="1" fill="#f2c42c" fill-opacity="1"></use><g><use xlink:href="#b1VBOyFBAH" opacity="1" fill-opacity="0" stroke="#000000" stroke-width="1" stroke-opacity="0"></use></g></g><g><use xlink:href="#c3FUzaPe" opacity="1" fill="#000000" fill-opacity="0"></use><g><use xlink:href="#c3FUzaPe" opacity="1" fill-opacity="0" stroke="#000000" stroke-width="1" stroke-opacity="0"></use></g></g><g><use xlink:href="#a55AhQ34EC" opacity="1" fill="#fadc60" fill-opacity="1"></use><g><use xlink:href="#a55AhQ34EC" opacity="1" fill-opacity="0" stroke="#000000" stroke-width="1" stroke-opacity="0"></use></g></g><g><use xlink:href="#aARptgOwW" opacity="1" fill="#000000" fill-opacity="0"></use><g><use xlink:href="#aARptgOwW" opacity="1" fill-opacity="0" stroke="#000000" stroke-width="1" stroke-opacity="0"></use></g></g><g><use xlink:href="#i6CIT7JDb" opacity="1" fill="#19b3f0" fill-opacity="1"></use><g><use xlink:href="#i6CIT7JDb" opacity="1" fill-opacity="0" stroke="#000000" stroke-width="1" stroke-opacity="0"></use></g></g><g><use xlink:href="#a1lw95E5aI" opacity="1" fill="#000000" fill-opacity="0"></use><g><use xlink:href="#a1lw95E5aI" opacity="1" fill-opacity="0" stroke="#000000" stroke-width="1" stroke-opacity="0"></use></g></g><g><use xlink:href="#b3p4xAZ3bt" opacity="1" fill="#000000" fill-opacity="1"></use><g><use xlink:href="#b3p4xAZ3bt" opacity="1" fill-opacity="0" stroke="#000000" stroke-width="1" stroke-opacity="0"></use></g></g><g><use xlink:href="#hnEKfvPSX" opacity="1" fill="#000000" fill-opacity="0"></use><g><use xlink:href="#hnEKfvPSX" opacity="1" fill-opacity="0" stroke="#000000" stroke-width="1" stroke-opacity="0"></use></g></g><g><use xlink:href="#b5N4KLAZr" opacity="1" fill="#000000" fill-opacity="1"></use><g><use xlink:href="#b5N4KLAZr" opacity="1" fill-opacity="0" stroke="#000000" stroke-width="1" stroke-opacity="0"></use></g></g><g><use xlink:href="#aXzHXsa7Q" opacity="1" fill="#000000" fill-opacity="0"></use><g><use xlink:href="#aXzHXsa7Q" opacity="1" fill-opacity="0" stroke="#000000" stroke-width="1" stroke-opacity="0"></use></g></g></g></g></svg>