<?xml version="1.0" encoding="UTF-8" standalone="no"?>
<!DOCTYPE svg PUBLIC "-//W3C//DTD SVG 1.1//EN" "http://www.w3.org/Graphics/SVG/1.1/DTD/svg11.dtd">
<svg version="1.1" xmlns="http://www.w3.org/2000/svg" xmlns:xlink="http://www.w3.org/1999/xlink" preserveAspectRatio="xMidYMid meet" viewBox="0 0 500 398" width="500" height="398"><defs><path d="M498.11 -3.46C498.11 237.14 498.11 370.81 498.11 397.54C498.11 397.54 498.11 397.54 498.11 397.54C197.66 397.54 30.75 397.54 -2.64 397.54C-2.64 397.54 -2.64 397.54 -2.64 397.54C-2.64 156.94 -2.64 23.27 -2.64 -3.46C-2.64 -3.46 -2.64 -3.46 -2.64 -3.46C297.81 -3.46 464.72 -3.46 498.11 -3.46C498.11 -3.46 498.11 -3.46 498.11 -3.46Z" id="a2sZi74kI"></path><path d="M498.11 -3.46C498.11 237.14 498.11 370.81 498.11 397.54C498.11 397.54 498.11 397.54 498.11 397.54C197.66 397.54 30.75 397.54 -2.64 397.54C-2.64 397.54 -2.64 397.54 -2.64 397.54C-2.64 156.94 -2.64 23.27 -2.64 -3.46C-2.64 -3.46 -2.64 -3.46 -2.64 -3.46C297.81 -3.46 464.72 -3.46 498.11 -3.46C498.11 -3.46 498.11 -3.46 498.11 -3.46Z" id="a13FsC0uF"></path><path d="M58.03 173.9C58.03 167.66 52.97 162.61 46.74 162.61C46.57 162.61 45.23 162.61 45.07 162.61C38.83 162.61 33.77 167.66 33.77 173.9C33.77 177.71 33.77 208.17 33.77 211.97C33.77 218.22 38.83 223.28 45.07 223.28C45.4 223.28 46.57 223.28 46.74 223.28C52.97 223.28 58.03 218.22 58.03 211.97C58.03 208.17 58.03 177.71 58.03 173.9Z" id="b1I0pNCjEE"></path><path d="M58.03 173.9C58.03 167.66 52.97 162.61 46.74 162.61C46.57 162.61 45.23 162.61 45.07 162.61C38.83 162.61 33.77 167.66 33.77 173.9C33.77 177.71 33.77 208.17 33.77 211.97C33.77 218.22 38.83 223.28 45.07 223.28C45.4 223.28 46.57 223.28 46.74 223.28C52.97 223.28 58.03 218.22 58.03 211.97C58.03 208.17 58.03 177.71 58.03 173.9Z" id="c1QbWwxN9s"></path><path d="M58.03 173.9C58.03 167.66 52.97 162.61 46.74 162.61C46.57 162.61 45.23 162.61 45.07 162.61C38.83 162.61 33.77 167.66 33.77 173.9C33.77 177.71 33.77 208.17 33.77 211.97C33.77 218.22 38.83 223.28 45.07 223.28C45.4 223.28 46.57 223.28 46.74 223.28C52.97 223.28 58.03 218.22 58.03 211.97C58.03 208.17 58.03 177.71 58.03 173.9Z" id="a3dmyrQPi"></path><path d="M58.03 173.9C58.03 167.66 52.97 162.61 46.74 162.61C46.57 162.61 45.23 162.61 45.07 162.61C38.83 162.61 33.77 167.66 33.77 173.9C33.77 177.71 33.77 208.17 33.77 211.97C33.77 218.22 38.83 223.28 45.07 223.28C45.4 223.28 46.57 223.28 46.74 223.28C52.97 223.28 58.03 218.22 58.03 211.97C58.03 208.17 58.03 177.71 58.03 173.9Z" id="a1wrZAzLNj"></path><path d="M45.9 174.12C45.9 177.88 45.9 207.99 45.9 211.76C45.9 216.15 43.45 219.96 39.84 221.9C41.46 222.78 43.32 223.28 45.28 223.28C45.41 223.28 46.4 223.28 46.53 223.28C52.88 223.28 58.03 218.12 58.03 211.76C58.03 207.99 58.03 177.88 58.03 174.11C58.03 167.75 52.88 162.61 46.53 162.61C46.28 162.61 45.41 162.61 45.28 162.61C43.32 162.61 41.46 163.11 39.84 163.97C43.45 165.92 45.9 169.73 45.9 174.12Z" id="i2HHsNHl28"></path><path d="M45.9 174.12C45.9 177.88 45.9 207.99 45.9 211.76C45.9 216.15 43.45 219.96 39.84 221.9C41.46 222.78 43.32 223.28 45.28 223.28C45.41 223.28 46.4 223.28 46.53 223.28C52.88 223.28 58.03 218.12 58.03 211.76C58.03 207.99 58.03 177.88 58.03 174.11C58.03 167.75 52.88 162.61 46.53 162.61C46.28 162.61 45.41 162.61 45.28 162.61C43.32 162.61 41.46 163.11 39.84 163.97C43.45 165.92 45.9 169.73 45.9 174.12Z" id="a2KlZM1BJG"></path><path d="M45.9 174.12C45.9 177.88 45.9 207.99 45.9 211.76C45.9 216.15 43.45 219.96 39.84 221.9C41.46 222.78 43.32 223.28 45.28 223.28C45.41 223.28 46.4 223.28 46.53 223.28C52.88 223.28 58.03 218.12 58.03 211.76C58.03 207.99 58.03 177.88 58.03 174.11C58.03 167.75 52.88 162.61 46.53 162.61C46.28 162.61 45.41 162.61 45.28 162.61C43.32 162.61 41.46 163.11 39.84 163.97C43.45 165.92 45.9 169.73 45.9 174.12Z" id="fswmfMUA9"></path><path d="M45.9 174.12C45.9 177.88 45.9 207.99 45.9 211.76C45.9 216.15 43.45 219.96 39.84 221.9C41.46 222.78 43.32 223.28 45.28 223.28C45.41 223.28 46.4 223.28 46.53 223.28C52.88 223.28 58.03 218.12 58.03 211.76C58.03 207.99 58.03 177.88 58.03 174.11C58.03 167.75 52.88 162.61 46.53 162.61C46.28 162.61 45.41 162.61 45.28 162.61C43.32 162.61 41.46 163.11 39.84 163.97C43.45 165.92 45.9 169.73 45.9 174.12Z" id="d100AlD9qH"></path><path d="M21.82 218.69C22.5 221.83 24.62 224.47 27.57 225.79C28.92 226.4 35.69 229.44 47.9 234.92C52.35 224.99 54.83 219.48 55.33 218.38C58.17 212.03 55.35 204.59 49 201.75C46.1 200.44 38.83 197.18 27.2 191.96C22.51 204.61 20.43 212.2 20.97 214.74C21.06 215.14 21.74 218.29 21.82 218.69Z" id="c2rWRMLlju"></path><path d="M21.82 218.69C22.5 221.83 24.62 224.47 27.57 225.79C28.92 226.4 35.69 229.44 47.9 234.92C52.35 224.99 54.83 219.48 55.33 218.38C58.17 212.03 55.35 204.59 49 201.75C46.1 200.44 38.83 197.18 27.2 191.96C22.51 204.61 20.43 212.2 20.97 214.74C21.06 215.14 21.74 218.29 21.82 218.69Z" id="c9bHetGFk1"></path><path d="M21.82 218.69C22.5 221.83 24.62 224.47 27.57 225.79C28.92 226.4 35.69 229.44 47.9 234.92C52.35 224.99 54.83 219.48 55.33 218.38C58.17 212.03 55.35 204.59 49 201.75C46.1 200.44 38.83 197.18 27.2 191.96C22.51 204.61 20.43 212.2 20.97 214.74C21.06 215.14 21.74 218.29 21.82 218.69Z" id="aaG5mnCux"></path><path d="M21.82 218.69C22.5 221.83 24.62 224.47 27.57 225.79C28.92 226.4 35.69 229.44 47.9 234.92C52.35 224.99 54.83 219.48 55.33 218.38C58.17 212.03 55.35 204.59 49 201.75C46.1 200.44 38.83 197.18 27.2 191.96C22.51 204.61 20.43 212.2 20.97 214.74C21.06 215.14 21.74 218.29 21.82 218.69Z" id="f2A970hwXc"></path><path d="M43.73 212.1C41.39 217.32 35.27 219.64 30.05 217.31C29.09 216.87 21.41 213.43 20.44 212.99C20.66 213.56 20.84 214.14 20.97 214.74C21.06 215.14 21.74 218.29 21.82 218.69C22.5 221.83 24.62 224.47 27.57 225.79C28.92 226.4 35.69 229.44 47.9 234.92C52.35 224.99 54.83 219.48 55.33 218.38C58.17 212.03 55.35 204.59 49 201.75C48.79 201.66 48.04 201.32 47.94 201.27C47.79 202.53 47.47 203.78 46.92 205C46.6 205.71 44.04 211.4 43.73 212.1Z" id="b6qzUqtYj"></path><path d="M43.73 212.1C41.39 217.32 35.27 219.64 30.05 217.31C29.09 216.87 21.41 213.43 20.44 212.99C20.66 213.56 20.84 214.14 20.97 214.74C21.06 215.14 21.74 218.29 21.82 218.69C22.5 221.83 24.62 224.47 27.57 225.79C28.92 226.4 35.69 229.44 47.9 234.92C52.35 224.99 54.83 219.48 55.33 218.38C58.17 212.03 55.35 204.59 49 201.75C48.79 201.66 48.04 201.32 47.94 201.27C47.79 202.53 47.47 203.78 46.92 205C46.6 205.71 44.04 211.4 43.73 212.1Z" id="fGvCGAbqA"></path><path d="M43.73 212.1C41.39 217.32 35.27 219.64 30.05 217.31C29.09 216.87 21.41 213.43 20.44 212.99C20.66 213.56 20.84 214.14 20.97 214.74C21.06 215.14 21.74 218.29 21.82 218.69C22.5 221.83 24.62 224.47 27.57 225.79C28.92 226.4 35.69 229.44 47.9 234.92C52.35 224.99 54.83 219.48 55.33 218.38C58.17 212.03 55.35 204.59 49 201.75C48.79 201.66 48.04 201.32 47.94 201.27C47.79 202.53 47.47 203.78 46.92 205C46.6 205.71 44.04 211.4 43.73 212.1Z" id="b795ymWS6m"></path><path d="M43.73 212.1C41.39 217.32 35.27 219.64 30.05 217.31C29.09 216.87 21.41 213.43 20.44 212.99C20.66 213.56 20.84 214.14 20.97 214.74C21.06 215.14 21.74 218.29 21.82 218.69C22.5 221.83 24.62 224.47 27.57 225.79C28.92 226.4 35.69 229.44 47.9 234.92C52.35 224.99 54.83 219.48 55.33 218.38C58.17 212.03 55.35 204.59 49 201.75C48.79 201.66 48.04 201.32 47.94 201.27C47.79 202.53 47.47 203.78 46.92 205C46.6 205.71 44.04 211.4 43.73 212.1Z" id="adcshe2U"></path><path d="M138.55 20.27C160.22 20.27 333.56 20.27 355.24 20.27C363.24 20.27 369.72 26.77 369.72 34.77C369.72 45.75 369.72 100.68 369.72 199.55C353.34 199.55 271.46 199.55 124.06 199.55C124.06 97.02 124.06 42.09 124.06 34.77C124.06 26.77 130.55 20.27 138.55 20.27Z" id="adqllK08"></path><path d="M138.55 20.27C160.22 20.27 333.56 20.27 355.24 20.27C363.24 20.27 369.72 26.77 369.72 34.77C369.72 45.75 369.72 100.68 369.72 199.55C353.34 199.55 271.46 199.55 124.06 199.55C124.06 97.02 124.06 42.09 124.06 34.77C124.06 26.77 130.55 20.27 138.55 20.27Z" id="b6TEXolw7"></path><path d="M138.55 20.27C160.22 20.27 333.56 20.27 355.24 20.27C363.24 20.27 369.72 26.77 369.72 34.77C369.72 45.75 369.72 100.68 369.72 199.55C353.34 199.55 271.46 199.55 124.06 199.55C124.06 97.02 124.06 42.09 124.06 34.77C124.06 26.77 130.55 20.27 138.55 20.27Z" id="b2T2nc3ev1"></path><path d="M138.55 20.27C160.22 20.27 333.56 20.27 355.24 20.27C363.24 20.27 369.72 26.77 369.72 34.77C369.72 45.75 369.72 100.68 369.72 199.55C353.34 199.55 271.46 199.55 124.06 199.55C124.06 97.02 124.06 42.09 124.06 34.77C124.06 26.77 130.55 20.27 138.55 20.27Z" id="a17A3GVmNn"></path><path d="M332.23 199.55C335.99 199.55 365.98 199.55 369.73 199.55C369.73 101.32 369.73 46.76 369.73 35.83C369.73 27.24 362.76 20.27 354.17 20.27C346.67 20.27 320.42 20.27 316.67 20.27C325.27 20.27 332.23 27.24 332.23 35.83C332.23 46.76 332.23 101.32 332.23 199.55Z" id="aipDjGumb"></path><path d="M332.23 199.55C335.99 199.55 365.98 199.55 369.73 199.55C369.73 101.32 369.73 46.76 369.73 35.83C369.73 27.24 362.76 20.27 354.17 20.27C346.67 20.27 320.42 20.27 316.67 20.27C325.27 20.27 332.23 27.24 332.23 35.83C332.23 46.76 332.23 101.32 332.23 199.55Z" id="bNH2rRMvS"></path><path d="M332.23 199.55C335.99 199.55 365.98 199.55 369.73 199.55C369.73 101.32 369.73 46.76 369.73 35.83C369.73 27.24 362.76 20.27 354.17 20.27C346.67 20.27 320.42 20.27 316.67 20.27C325.27 20.27 332.23 27.24 332.23 35.83C332.23 46.76 332.23 101.32 332.23 199.55Z" id="cts0UWGUZ"></path><path d="M332.23 199.55C335.99 199.55 365.98 199.55 369.73 199.55C369.73 101.32 369.73 46.76 369.73 35.83C369.73 27.24 362.76 20.27 354.17 20.27C346.67 20.27 320.42 20.27 316.67 20.27C325.27 20.27 332.23 27.24 332.23 35.83C332.23 46.76 332.23 101.32 332.23 199.55Z" id="b7XzobHdF"></path><path d="M460.85 173.9C460.85 167.66 455.8 162.61 449.56 162.61C449.39 162.61 448.06 162.61 447.9 162.61C441.65 162.61 436.59 167.66 436.59 173.9C436.59 177.71 436.59 208.17 436.59 211.97C436.6 218.22 441.65 223.28 447.9 223.28C448.23 223.28 449.39 223.28 449.56 223.28C455.8 223.28 460.85 218.22 460.85 211.97C460.85 208.17 460.85 177.71 460.85 173.9Z" id="bIzXaEEkQ"></path><path d="M460.85 173.9C460.85 167.66 455.8 162.61 449.56 162.61C449.39 162.61 448.06 162.61 447.9 162.61C441.65 162.61 436.59 167.66 436.59 173.9C436.59 177.71 436.59 208.17 436.59 211.97C436.6 218.22 441.65 223.28 447.9 223.28C448.23 223.28 449.39 223.28 449.56 223.28C455.8 223.28 460.85 218.22 460.85 211.97C460.85 208.17 460.85 177.71 460.85 173.9Z" id="cPNg6aEIt"></path><path d="M460.85 173.9C460.85 167.66 455.8 162.61 449.56 162.61C449.39 162.61 448.06 162.61 447.9 162.61C441.65 162.61 436.59 167.66 436.59 173.9C436.59 177.71 436.59 208.17 436.59 211.97C436.6 218.22 441.65 223.28 447.9 223.28C448.23 223.28 449.39 223.28 449.56 223.28C455.8 223.28 460.85 218.22 460.85 211.97C460.85 208.17 460.85 177.71 460.85 173.9Z" id="ecgAlRZbF"></path><path d="M460.85 173.9C460.85 167.66 455.8 162.61 449.56 162.61C449.39 162.61 448.06 162.61 447.9 162.61C441.65 162.61 436.59 167.66 436.59 173.9C436.59 177.71 436.59 208.17 436.59 211.97C436.6 218.22 441.65 223.28 447.9 223.28C448.23 223.28 449.39 223.28 449.56 223.28C455.8 223.28 460.85 218.22 460.85 211.97C460.85 208.17 460.85 177.71 460.85 173.9Z" id="a4sAAp4GtV"></path><path d="M448.72 174.12C448.72 177.88 448.72 207.99 448.72 211.76C448.72 216.15 446.27 219.96 442.67 221.9C444.29 222.78 446.14 223.28 448.11 223.28C448.24 223.28 449.22 223.28 449.35 223.28C455.71 223.28 460.85 218.12 460.85 211.76C460.85 207.99 460.85 177.88 460.85 174.11C460.85 167.75 455.71 162.61 449.35 162.61C449.1 162.61 448.24 162.61 448.11 162.61C446.14 162.61 444.29 163.11 442.67 163.97C446.27 165.92 448.72 169.73 448.72 174.12Z" id="f5LXILwL5"></path><path d="M448.72 174.12C448.72 177.88 448.72 207.99 448.72 211.76C448.72 216.15 446.27 219.96 442.67 221.9C444.29 222.78 446.14 223.28 448.11 223.28C448.24 223.28 449.22 223.28 449.35 223.28C455.71 223.28 460.85 218.12 460.85 211.76C460.85 207.99 460.85 177.88 460.85 174.11C460.85 167.75 455.71 162.61 449.35 162.61C449.1 162.61 448.24 162.61 448.11 162.61C446.14 162.61 444.29 163.11 442.67 163.97C446.27 165.92 448.72 169.73 448.72 174.12Z" id="a1LdIzTXk"></path><path d="M448.72 174.12C448.72 177.88 448.72 207.99 448.72 211.76C448.72 216.15 446.27 219.96 442.67 221.9C444.29 222.78 446.14 223.28 448.11 223.28C448.24 223.28 449.22 223.28 449.35 223.28C455.71 223.28 460.85 218.12 460.85 211.76C460.85 207.99 460.85 177.88 460.85 174.11C460.85 167.75 455.71 162.61 449.35 162.61C449.1 162.61 448.24 162.61 448.11 162.61C446.14 162.61 444.29 163.11 442.67 163.97C446.27 165.92 448.72 169.73 448.72 174.12Z" id="a4I41q2yO"></path><path d="M448.72 174.12C448.72 177.88 448.72 207.99 448.72 211.76C448.72 216.15 446.27 219.96 442.67 221.9C444.29 222.78 446.14 223.28 448.11 223.28C448.24 223.28 449.22 223.28 449.35 223.28C455.71 223.28 460.85 218.12 460.85 211.76C460.85 207.99 460.85 177.88 460.85 174.11C460.85 167.75 455.71 162.61 449.35 162.61C449.1 162.61 448.24 162.61 448.11 162.61C446.14 162.61 444.29 163.11 442.67 163.97C446.27 165.92 448.72 169.73 448.72 174.12Z" id="bsyy9nTgv"></path><path d="M334.23 162.61C329.77 162.61 325.44 164.08 321.93 166.84C304.96 180.19 277.67 188.85 246.89 188.85C216.11 188.85 188.82 180.19 171.86 166.84C168.34 164.08 164.01 162.61 159.56 162.61C152.84 162.61 99.14 162.61 92.42 162.61C79.95 162.61 68.74 170.19 64.08 181.75C60.02 191.84 27.53 272.6 23.47 282.7C22.01 286.32 21.25 290.19 21.25 294.1C21.25 300.98 21.25 356.09 21.25 362.99C21.25 368.96 26.1 373.81 32.07 373.81C75.04 373.81 418.75 373.81 461.71 373.81C467.69 373.81 472.53 368.96 472.53 362.99C472.53 356.09 472.53 300.98 472.53 294.1C472.53 290.19 471.79 286.32 470.32 282.7C462.2 262.51 433.76 191.84 429.7 181.75C425.04 170.18 413.83 162.61 401.36 162.61C394.65 162.61 340.94 162.61 334.23 162.61Z" id="f4YNCTMgEO"></path><path d="M334.23 162.61C329.77 162.61 325.44 164.08 321.93 166.84C304.96 180.19 277.67 188.85 246.89 188.85C216.11 188.85 188.82 180.19 171.86 166.84C168.34 164.08 164.01 162.61 159.56 162.61C152.84 162.61 99.14 162.61 92.42 162.61C79.95 162.61 68.74 170.19 64.08 181.75C60.02 191.84 27.53 272.6 23.47 282.7C22.01 286.32 21.25 290.19 21.25 294.1C21.25 300.98 21.25 356.09 21.25 362.99C21.25 368.96 26.1 373.81 32.07 373.81C75.04 373.81 418.75 373.81 461.71 373.81C467.69 373.81 472.53 368.96 472.53 362.99C472.53 356.09 472.53 300.98 472.53 294.1C472.53 290.19 471.79 286.32 470.32 282.7C462.2 262.51 433.76 191.84 429.7 181.75C425.04 170.18 413.83 162.61 401.36 162.61C394.65 162.61 340.94 162.61 334.23 162.61Z" id="a1E4qZeQJy"></path><path d="M334.23 162.61C329.77 162.61 325.44 164.08 321.93 166.84C304.96 180.19 277.67 188.85 246.89 188.85C216.11 188.85 188.82 180.19 171.86 166.84C168.34 164.08 164.01 162.61 159.56 162.61C152.84 162.61 99.14 162.61 92.42 162.61C79.95 162.61 68.74 170.19 64.08 181.75C60.02 191.84 27.53 272.6 23.47 282.7C22.01 286.32 21.25 290.19 21.25 294.1C21.25 300.98 21.25 356.09 21.25 362.99C21.25 368.96 26.1 373.81 32.07 373.81C75.04 373.81 418.75 373.81 461.71 373.81C467.69 373.81 472.53 368.96 472.53 362.99C472.53 356.09 472.53 300.98 472.53 294.1C472.53 290.19 471.79 286.32 470.32 282.7C462.2 262.51 433.76 191.84 429.7 181.75C425.04 170.18 413.83 162.61 401.36 162.61C394.65 162.61 340.94 162.61 334.23 162.61Z" id="c2KlHsKH8P"></path><path d="M334.23 162.61C329.77 162.61 325.44 164.08 321.93 166.84C304.96 180.19 277.67 188.85 246.89 188.85C216.11 188.85 188.82 180.19 171.86 166.84C168.34 164.08 164.01 162.61 159.56 162.61C152.84 162.61 99.14 162.61 92.42 162.61C79.95 162.61 68.74 170.19 64.08 181.75C60.02 191.84 27.53 272.6 23.47 282.7C22.01 286.32 21.25 290.19 21.25 294.1C21.25 300.98 21.25 356.09 21.25 362.99C21.25 368.96 26.1 373.81 32.07 373.81C75.04 373.81 418.75 373.81 461.71 373.81C467.69 373.81 472.53 368.96 472.53 362.99C472.53 356.09 472.53 300.98 472.53 294.1C472.53 290.19 471.79 286.32 470.32 282.7C462.2 262.51 433.76 191.84 429.7 181.75C425.04 170.18 413.83 162.61 401.36 162.61C394.65 162.61 340.94 162.61 334.23 162.61Z" id="b17ovwEbI"></path><path d="M335.54 162.61C348.01 162.61 359.23 170.19 363.88 181.75C367.94 191.84 400.44 272.6 404.5 282.7C405.96 286.32 406.71 290.19 406.71 294.1C406.71 300.98 406.71 356.09 406.71 362.99C406.71 368.96 401.87 373.81 395.9 373.81C402.47 373.81 455.13 373.81 461.71 373.81C467.69 373.81 472.53 368.96 472.53 362.99C472.53 356.09 472.53 300.98 472.53 294.1C472.53 290.19 471.79 286.32 470.32 282.7C462.2 262.51 433.76 191.84 429.7 181.75C425.04 170.18 413.83 162.61 401.36 162.61C394.78 162.61 342.12 162.61 335.54 162.61Z" id="b5ICpsNXEC"></path><path d="M335.54 162.61C348.01 162.61 359.23 170.19 363.88 181.75C367.94 191.84 400.44 272.6 404.5 282.7C405.96 286.32 406.71 290.19 406.71 294.1C406.71 300.98 406.71 356.09 406.71 362.99C406.71 368.96 401.87 373.81 395.9 373.81C402.47 373.81 455.13 373.81 461.71 373.81C467.69 373.81 472.53 368.96 472.53 362.99C472.53 356.09 472.53 300.98 472.53 294.1C472.53 290.19 471.79 286.32 470.32 282.7C462.2 262.51 433.76 191.84 429.7 181.75C425.04 170.18 413.83 162.61 401.36 162.61C394.78 162.61 342.12 162.61 335.54 162.61Z" id="c3FZgw4kyz"></path><path d="M335.54 162.61C348.01 162.61 359.23 170.19 363.88 181.75C367.94 191.84 400.44 272.6 404.5 282.7C405.96 286.32 406.71 290.19 406.71 294.1C406.71 300.98 406.71 356.09 406.71 362.99C406.71 368.96 401.87 373.81 395.9 373.81C402.47 373.81 455.13 373.81 461.71 373.81C467.69 373.81 472.53 368.96 472.53 362.99C472.53 356.09 472.53 300.98 472.53 294.1C472.53 290.19 471.79 286.32 470.32 282.7C462.2 262.51 433.76 191.84 429.7 181.75C425.04 170.18 413.83 162.61 401.36 162.61C394.78 162.61 342.12 162.61 335.54 162.61Z" id="a4SM5e2zAg"></path><path d="M335.54 162.61C348.01 162.61 359.23 170.19 363.88 181.75C367.94 191.84 400.44 272.6 404.5 282.7C405.96 286.32 406.71 290.19 406.71 294.1C406.71 300.98 406.71 356.09 406.71 362.99C406.71 368.96 401.87 373.81 395.9 373.81C402.47 373.81 455.13 373.81 461.71 373.81C467.69 373.81 472.53 368.96 472.53 362.99C472.53 356.09 472.53 300.98 472.53 294.1C472.53 290.19 471.79 286.32 470.32 282.7C462.2 262.51 433.76 191.84 429.7 181.75C425.04 170.18 413.83 162.61 401.36 162.61C394.78 162.61 342.12 162.61 335.54 162.61Z" id="bnwLZ19u2"></path><path d="M468.47 174.11C468.47 163.56 459.9 154.99 449.35 154.99C449.22 154.99 448.24 154.99 448.11 154.99C439.72 154.99 432.59 160.41 430.02 167.94C422.92 159.83 412.6 154.99 401.36 154.99C399.76 154.99 391.76 154.99 377.35 154.99C377.35 83.02 377.35 43.04 377.35 35.04C377.35 22.7 367.31 12.65 354.96 12.65C352.46 12.65 332.49 12.65 329.99 12.65C325.78 12.65 322.37 16.06 322.37 20.27C322.37 24.48 325.78 27.89 329.99 27.89C332.49 27.89 352.46 27.89 354.96 27.89C358.9 27.89 362.1 31.1 362.1 35.04C362.1 43.04 362.1 83.02 362.1 154.99C345.38 154.99 336.1 154.99 334.24 154.99C328.07 154.99 322.03 157.06 317.22 160.84C301 173.61 274.71 181.23 246.9 181.23C237.49 181.23 228.24 180.38 219.41 178.71C215.28 177.93 211.29 180.64 210.5 184.78C209.72 188.92 212.43 192.91 216.57 193.69C226.35 195.53 236.54 196.47 246.9 196.47C278.48 196.47 307.55 187.85 326.65 172.83C328.78 171.16 331.48 170.23 334.24 170.23C340.95 170.23 394.65 170.23 401.36 170.23C410.77 170.23 419.12 175.86 422.63 184.59C426.69 194.69 459.19 275.45 463.25 285.54C464.35 288.27 464.91 291.15 464.91 294.1C464.91 300.98 464.91 356.09 464.91 362.99C464.91 364.75 463.48 366.18 461.71 366.18C418.75 366.18 75.04 366.18 32.07 366.18C30.31 366.18 28.88 364.75 28.88 362.99C28.88 361.9 28.88 353.19 28.88 352.1C28.88 347.89 25.47 344.48 21.26 344.48C17.05 344.48 13.63 347.89 13.63 352.1C13.63 353.19 13.63 361.9 13.63 362.99C13.63 373.16 21.91 381.43 32.07 381.43C75.04 381.43 418.75 381.43 461.71 381.43C471.89 381.43 480.16 373.16 480.16 362.99C480.16 356.09 480.16 300.98 480.16 294.1C480.16 289.19 479.23 284.39 477.39 279.84C473.32 269.73 459.08 234.33 457.04 229.27C463.77 226.3 468.47 219.57 468.47 211.76C468.47 207.99 468.47 177.88 468.47 174.11ZM449.35 170.23C451.49 170.23 453.23 171.97 453.23 174.12C453.23 177.88 453.23 207.99 453.23 211.76C453.23 213.18 452.46 214.41 451.33 215.09C450.62 213.31 444.91 199.14 444.21 197.37C444.21 197.22 444.23 197.07 444.23 196.93C444.23 192.36 444.23 178.68 444.23 174.12C444.23 171.97 445.96 170.23 448.11 170.23C448.24 170.23 449.22 170.23 449.35 170.23Z" id="b3kWxOMnS"></path><path d="M468.47 174.11C468.47 163.56 459.9 154.99 449.35 154.99C449.22 154.99 448.24 154.99 448.11 154.99C439.72 154.99 432.59 160.41 430.02 167.94C422.92 159.83 412.6 154.99 401.36 154.99C399.76 154.99 391.76 154.99 377.35 154.99C377.35 83.02 377.35 43.04 377.35 35.04C377.35 22.7 367.31 12.65 354.96 12.65C352.46 12.65 332.49 12.65 329.99 12.65C325.78 12.65 322.37 16.06 322.37 20.27C322.37 24.48 325.78 27.89 329.99 27.89C332.49 27.89 352.46 27.89 354.96 27.89C358.9 27.89 362.1 31.1 362.1 35.04C362.1 43.04 362.1 83.02 362.1 154.99C345.38 154.99 336.1 154.99 334.24 154.99C328.07 154.99 322.03 157.06 317.22 160.84C301 173.61 274.71 181.23 246.9 181.23C237.49 181.23 228.24 180.38 219.41 178.71C215.28 177.93 211.29 180.64 210.5 184.78C209.72 188.92 212.43 192.91 216.57 193.69C226.35 195.53 236.54 196.47 246.9 196.47C278.48 196.47 307.55 187.85 326.65 172.83C328.78 171.16 331.48 170.23 334.24 170.23C340.95 170.23 394.65 170.23 401.36 170.23C410.77 170.23 419.12 175.86 422.63 184.59C426.69 194.69 459.19 275.45 463.25 285.54C464.35 288.27 464.91 291.15 464.91 294.1C464.91 300.98 464.91 356.09 464.91 362.99C464.91 364.75 463.48 366.18 461.71 366.18C418.75 366.18 75.04 366.18 32.07 366.18C30.31 366.18 28.88 364.75 28.88 362.99C28.88 361.9 28.88 353.19 28.88 352.1C28.88 347.89 25.47 344.48 21.26 344.48C17.05 344.48 13.63 347.89 13.63 352.1C13.63 353.19 13.63 361.9 13.63 362.99C13.63 373.16 21.91 381.43 32.07 381.43C75.04 381.43 418.75 381.43 461.71 381.43C471.89 381.43 480.16 373.16 480.16 362.99C480.16 356.09 480.16 300.98 480.16 294.1C480.16 289.19 479.23 284.39 477.39 279.84C473.32 269.73 459.08 234.33 457.04 229.27C463.77 226.3 468.47 219.57 468.47 211.76C468.47 207.99 468.47 177.88 468.47 174.11ZM449.35 170.23C451.49 170.23 453.23 171.97 453.23 174.12C453.23 177.88 453.23 207.99 453.23 211.76C453.23 213.18 452.46 214.41 451.33 215.09C450.62 213.31 444.91 199.14 444.21 197.37C444.21 197.22 444.23 197.07 444.23 196.93C444.23 192.36 444.23 178.68 444.23 174.12C444.23 171.97 445.96 170.23 448.11 170.23C448.24 170.23 449.22 170.23 449.35 170.23Z" id="aK52t9zY3"></path><path d="M468.47 174.11C468.47 163.56 459.9 154.99 449.35 154.99C449.22 154.99 448.24 154.99 448.11 154.99C439.72 154.99 432.59 160.41 430.02 167.94C422.92 159.83 412.6 154.99 401.36 154.99C399.76 154.99 391.76 154.99 377.35 154.99C377.35 83.02 377.35 43.04 377.35 35.04C377.35 22.7 367.31 12.65 354.96 12.65C352.46 12.65 332.49 12.65 329.99 12.65C325.78 12.65 322.37 16.06 322.37 20.27C322.37 24.48 325.78 27.89 329.99 27.89C332.49 27.89 352.46 27.89 354.96 27.89C358.9 27.89 362.1 31.1 362.1 35.04C362.1 43.04 362.1 83.02 362.1 154.99C345.38 154.99 336.1 154.99 334.24 154.99C328.07 154.99 322.03 157.06 317.22 160.84C301 173.61 274.71 181.23 246.9 181.23C237.49 181.23 228.24 180.38 219.41 178.71C215.28 177.93 211.29 180.64 210.5 184.78C209.72 188.92 212.43 192.91 216.57 193.69C226.35 195.53 236.54 196.47 246.9 196.47C278.48 196.47 307.55 187.85 326.65 172.83C328.78 171.16 331.48 170.23 334.24 170.23C340.95 170.23 394.65 170.23 401.36 170.23C410.77 170.23 419.12 175.86 422.63 184.59C426.69 194.69 459.19 275.45 463.25 285.54C464.35 288.27 464.91 291.15 464.91 294.1C464.91 300.98 464.91 356.09 464.91 362.99C464.91 364.75 463.48 366.18 461.71 366.18C418.75 366.18 75.04 366.18 32.07 366.18C30.31 366.18 28.88 364.75 28.88 362.99C28.88 361.9 28.88 353.19 28.88 352.1C28.88 347.89 25.47 344.48 21.26 344.48C17.05 344.48 13.63 347.89 13.63 352.1C13.63 353.19 13.63 361.9 13.63 362.99C13.63 373.16 21.91 381.43 32.07 381.43C75.04 381.43 418.75 381.43 461.71 381.43C471.89 381.43 480.16 373.16 480.16 362.99C480.16 356.09 480.16 300.98 480.16 294.1C480.16 289.19 479.23 284.39 477.39 279.84C473.32 269.73 459.08 234.33 457.04 229.27C463.77 226.3 468.47 219.57 468.47 211.76C468.47 207.99 468.47 177.88 468.47 174.11ZM449.35 170.23C451.49 170.23 453.23 171.97 453.23 174.12C453.23 177.88 453.23 207.99 453.23 211.76C453.23 213.18 452.46 214.41 451.33 215.09C450.62 213.31 444.91 199.14 444.21 197.37C444.21 197.22 444.23 197.07 444.23 196.93C444.23 192.36 444.23 178.68 444.23 174.12C444.23 171.97 445.96 170.23 448.11 170.23C448.24 170.23 449.22 170.23 449.35 170.23Z" id="c1btmQVN3j"></path><path d="M468.47 174.11C468.47 163.56 459.9 154.99 449.35 154.99C449.22 154.99 448.24 154.99 448.11 154.99C439.72 154.99 432.59 160.41 430.02 167.94C422.92 159.83 412.6 154.99 401.36 154.99C399.76 154.99 391.76 154.99 377.35 154.99C377.35 83.02 377.35 43.04 377.35 35.04C377.35 22.7 367.31 12.65 354.96 12.65C352.46 12.65 332.49 12.65 329.99 12.65C325.78 12.65 322.37 16.06 322.37 20.27C322.37 24.48 325.78 27.89 329.99 27.89C332.49 27.89 352.46 27.89 354.96 27.89C358.9 27.89 362.1 31.1 362.1 35.04C362.1 43.04 362.1 83.02 362.1 154.99C345.38 154.99 336.1 154.99 334.24 154.99C328.07 154.99 322.03 157.06 317.22 160.84C301 173.61 274.71 181.23 246.9 181.23C237.49 181.23 228.24 180.38 219.41 178.71C215.28 177.93 211.29 180.64 210.5 184.78C209.72 188.92 212.43 192.91 216.57 193.69C226.35 195.53 236.54 196.47 246.9 196.47C278.48 196.47 307.55 187.85 326.65 172.83C328.78 171.16 331.48 170.23 334.24 170.23C340.95 170.23 394.65 170.23 401.36 170.23C410.77 170.23 419.12 175.86 422.63 184.59C426.69 194.69 459.19 275.45 463.25 285.54C464.35 288.27 464.91 291.15 464.91 294.1C464.91 300.98 464.91 356.09 464.91 362.99C464.91 364.75 463.48 366.18 461.71 366.18C418.75 366.18 75.04 366.18 32.07 366.18C30.31 366.18 28.88 364.75 28.88 362.99C28.88 361.9 28.88 353.19 28.88 352.1C28.88 347.89 25.47 344.48 21.26 344.48C17.05 344.48 13.63 347.89 13.63 352.1C13.63 353.19 13.63 361.9 13.63 362.99C13.63 373.16 21.91 381.43 32.07 381.43C75.04 381.43 418.75 381.43 461.71 381.43C471.89 381.43 480.16 373.16 480.16 362.99C480.16 356.09 480.16 300.98 480.16 294.1C480.16 289.19 479.23 284.39 477.39 279.84C473.32 269.73 459.08 234.33 457.04 229.27C463.77 226.3 468.47 219.57 468.47 211.76C468.47 207.99 468.47 177.88 468.47 174.11ZM449.35 170.23C451.49 170.23 453.23 171.97 453.23 174.12C453.23 177.88 453.23 207.99 453.23 211.76C453.23 213.18 452.46 214.41 451.33 215.09C450.62 213.31 444.91 199.14 444.21 197.37C444.21 197.22 444.23 197.07 444.23 196.93C444.23 192.36 444.23 178.68 444.23 174.12C444.23 171.97 445.96 170.23 448.11 170.23C448.24 170.23 449.22 170.23 449.35 170.23Z" id="a1vMbfOh6C"></path><path d="M104.34 232.06C98.11 232.06 93.06 237.11 93.06 243.35C93.06 243.47 93.06 244.44 93.06 244.56C93.06 250.8 98.11 255.84 104.34 255.84C106.53 255.84 123.98 255.84 126.17 255.84C132.4 255.84 137.45 250.8 137.45 244.56C137.45 244.32 137.45 243.47 137.45 243.35C137.45 237.11 132.4 232.06 126.17 232.06C123.98 232.06 106.53 232.06 104.34 232.06Z" id="bAZ56SB7w"></path><path d="M104.34 232.06C98.11 232.06 93.06 237.11 93.06 243.35C93.06 243.47 93.06 244.44 93.06 244.56C93.06 250.8 98.11 255.84 104.34 255.84C106.53 255.84 123.98 255.84 126.17 255.84C132.4 255.84 137.45 250.8 137.45 244.56C137.45 244.32 137.45 243.47 137.45 243.35C137.45 237.11 132.4 232.06 126.17 232.06C123.98 232.06 106.53 232.06 104.34 232.06Z" id="b1Av3fqjzN"></path><path d="M104.34 232.06C98.11 232.06 93.06 237.11 93.06 243.35C93.06 243.47 93.06 244.44 93.06 244.56C93.06 250.8 98.11 255.84 104.34 255.84C106.53 255.84 123.98 255.84 126.17 255.84C132.4 255.84 137.45 250.8 137.45 244.56C137.45 244.32 137.45 243.47 137.45 243.35C137.45 237.11 132.4 232.06 126.17 232.06C123.98 232.06 106.53 232.06 104.34 232.06Z" id="aIKP9uFes"></path><path d="M104.34 232.06C98.11 232.06 93.06 237.11 93.06 243.35C93.06 243.47 93.06 244.44 93.06 244.56C93.06 250.8 98.11 255.84 104.34 255.84C106.53 255.84 123.98 255.84 126.17 255.84C132.4 255.84 137.45 250.8 137.45 244.56C137.45 244.32 137.45 243.47 137.45 243.35C137.45 237.11 132.4 232.06 126.17 232.06C123.98 232.06 106.53 232.06 104.34 232.06Z" id="b2GgmJu7z"></path><path d="M158.88 244.56C158.88 250.8 163.92 255.84 170.16 255.84C172.34 255.84 189.81 255.84 191.98 255.84C198.22 255.84 203.28 250.8 203.28 244.56C203.28 244.44 203.28 243.47 203.28 243.35C203.28 237.11 198.22 232.06 191.98 232.06C187.63 232.06 172.34 232.06 170.16 232.06C163.92 232.06 158.88 237.11 158.88 243.35C158.88 243.47 158.88 244.44 158.88 244.56Z" id="br911FeLF"></path><path d="M158.88 244.56C158.88 250.8 163.92 255.84 170.16 255.84C172.34 255.84 189.81 255.84 191.98 255.84C198.22 255.84 203.28 250.8 203.28 244.56C203.28 244.44 203.28 243.47 203.28 243.35C203.28 237.11 198.22 232.06 191.98 232.06C187.63 232.06 172.34 232.06 170.16 232.06C163.92 232.06 158.88 237.11 158.88 243.35C158.88 243.47 158.88 244.44 158.88 244.56Z" id="j4bnn5aqym"></path><path d="M158.88 244.56C158.88 250.8 163.92 255.84 170.16 255.84C172.34 255.84 189.81 255.84 191.98 255.84C198.22 255.84 203.28 250.8 203.28 244.56C203.28 244.44 203.28 243.47 203.28 243.35C203.28 237.11 198.22 232.06 191.98 232.06C187.63 232.06 172.34 232.06 170.16 232.06C163.92 232.06 158.88 237.11 158.88 243.35C158.88 243.47 158.88 244.44 158.88 244.56Z" id="ayJGSjwjJ"></path><path d="M158.88 244.56C158.88 250.8 163.92 255.84 170.16 255.84C172.34 255.84 189.81 255.84 191.98 255.84C198.22 255.84 203.28 250.8 203.28 244.56C203.28 244.44 203.28 243.47 203.28 243.35C203.28 237.11 198.22 232.06 191.98 232.06C187.63 232.06 172.34 232.06 170.16 232.06C163.92 232.06 158.88 237.11 158.88 243.35C158.88 243.47 158.88 244.44 158.88 244.56Z" id="d28wNmcfPH"></path><path d="M224.69 244.56C224.69 250.8 229.75 255.84 235.98 255.84C238.16 255.84 255.63 255.84 257.81 255.84C264.04 255.84 269.09 250.8 269.09 244.56C269.09 244.44 269.09 243.47 269.09 243.35C269.09 237.11 264.03 232.06 257.81 232.06C253.44 232.06 238.16 232.06 235.98 232.06C229.75 232.06 224.69 237.11 224.69 243.35C224.69 243.47 224.69 244.44 224.69 244.56Z" id="a50nm3zhgU"></path><path d="M224.69 244.56C224.69 250.8 229.75 255.84 235.98 255.84C238.16 255.84 255.63 255.84 257.81 255.84C264.04 255.84 269.09 250.8 269.09 244.56C269.09 244.44 269.09 243.47 269.09 243.35C269.09 237.11 264.03 232.06 257.81 232.06C253.44 232.06 238.16 232.06 235.98 232.06C229.75 232.06 224.69 237.11 224.69 243.35C224.69 243.47 224.69 244.44 224.69 244.56Z" id="h3Gf2tSH4"></path><path d="M224.69 244.56C224.69 250.8 229.75 255.84 235.98 255.84C238.16 255.84 255.63 255.84 257.81 255.84C264.04 255.84 269.09 250.8 269.09 244.56C269.09 244.44 269.09 243.47 269.09 243.35C269.09 237.11 264.03 232.06 257.81 232.06C253.44 232.06 238.16 232.06 235.98 232.06C229.75 232.06 224.69 237.11 224.69 243.35C224.69 243.47 224.69 244.44 224.69 244.56Z" id="azaT64tnx"></path><path d="M224.69 244.56C224.69 250.8 229.75 255.84 235.98 255.84C238.16 255.84 255.63 255.84 257.81 255.84C264.04 255.84 269.09 250.8 269.09 244.56C269.09 244.44 269.09 243.47 269.09 243.35C269.09 237.11 264.03 232.06 257.81 232.06C253.44 232.06 238.16 232.06 235.98 232.06C229.75 232.06 224.69 237.11 224.69 243.35C224.69 243.47 224.69 244.44 224.69 244.56Z" id="bgNaJA1Y"></path><path d="M290.52 244.56C290.52 250.8 295.57 255.84 301.8 255.84C303.99 255.84 321.44 255.84 323.63 255.84C329.86 255.84 334.91 250.8 334.91 244.56C334.91 244.44 334.91 243.47 334.91 243.35C334.91 237.11 329.86 232.06 323.63 232.06C319.27 232.06 303.99 232.06 301.8 232.06C295.57 232.06 290.52 237.11 290.52 243.35C290.52 243.47 290.52 244.44 290.52 244.56Z" id="bjrDvniYK"></path><path d="M290.52 244.56C290.52 250.8 295.57 255.84 301.8 255.84C303.99 255.84 321.44 255.84 323.63 255.84C329.86 255.84 334.91 250.8 334.91 244.56C334.91 244.44 334.91 243.47 334.91 243.35C334.91 237.11 329.86 232.06 323.63 232.06C319.27 232.06 303.99 232.06 301.8 232.06C295.57 232.06 290.52 237.11 290.52 243.35C290.52 243.47 290.52 244.44 290.52 244.56Z" id="c1UbJroHGc"></path><path d="M290.52 244.56C290.52 250.8 295.57 255.84 301.8 255.84C303.99 255.84 321.44 255.84 323.63 255.84C329.86 255.84 334.91 250.8 334.91 244.56C334.91 244.44 334.91 243.47 334.91 243.35C334.91 237.11 329.86 232.06 323.63 232.06C319.27 232.06 303.99 232.06 301.8 232.06C295.57 232.06 290.52 237.11 290.52 243.35C290.52 243.47 290.52 244.44 290.52 244.56Z" id="a1dbXTsd7Z"></path><path d="M290.52 244.56C290.52 250.8 295.57 255.84 301.8 255.84C303.99 255.84 321.44 255.84 323.63 255.84C329.86 255.84 334.91 250.8 334.91 244.56C334.91 244.44 334.91 243.47 334.91 243.35C334.91 237.11 329.86 232.06 323.63 232.06C319.27 232.06 303.99 232.06 301.8 232.06C295.57 232.06 290.52 237.11 290.52 243.35C290.52 243.47 290.52 244.44 290.52 244.56Z" id="a4xI8DyyuJ"></path><path d="M356.33 244.56C356.33 250.8 361.39 255.84 367.62 255.84C369.8 255.84 387.27 255.84 389.45 255.84C395.68 255.84 400.73 250.8 400.73 244.56C400.73 244.44 400.73 243.47 400.73 243.35C400.73 237.11 395.68 232.06 389.45 232.06C385.08 232.06 369.8 232.06 367.62 232.06C361.38 232.06 356.33 237.11 356.33 243.35C356.33 243.47 356.33 244.44 356.33 244.56Z" id="b1hxFoCNAl"></path><path d="M356.33 244.56C356.33 250.8 361.39 255.84 367.62 255.84C369.8 255.84 387.27 255.84 389.45 255.84C395.68 255.84 400.73 250.8 400.73 244.56C400.73 244.44 400.73 243.47 400.73 243.35C400.73 237.11 395.68 232.06 389.45 232.06C385.08 232.06 369.8 232.06 367.62 232.06C361.38 232.06 356.33 237.11 356.33 243.35C356.33 243.47 356.33 244.44 356.33 244.56Z" id="bBkox5jCY"></path><path d="M356.33 244.56C356.33 250.8 361.39 255.84 367.62 255.84C369.8 255.84 387.27 255.84 389.45 255.84C395.68 255.84 400.73 250.8 400.73 244.56C400.73 244.44 400.73 243.47 400.73 243.35C400.73 237.11 395.68 232.06 389.45 232.06C385.08 232.06 369.8 232.06 367.62 232.06C361.38 232.06 356.33 237.11 356.33 243.35C356.33 243.47 356.33 244.44 356.33 244.56Z" id="d3rCmFL86g"></path><path d="M356.33 244.56C356.33 250.8 361.39 255.84 367.62 255.84C369.8 255.84 387.27 255.84 389.45 255.84C395.68 255.84 400.73 250.8 400.73 244.56C400.73 244.44 400.73 243.47 400.73 243.35C400.73 237.11 395.68 232.06 389.45 232.06C385.08 232.06 369.8 232.06 367.62 232.06C361.38 232.06 356.33 237.11 356.33 243.35C356.33 243.47 356.33 244.44 356.33 244.56Z" id="a3vTRsXti"></path><path d="M60.06 283.72C60.06 289.96 65.11 295.01 71.35 295.01C73.53 295.01 91 295.01 93.17 295.01C99.41 295.01 104.46 289.96 104.46 283.72C104.46 283.61 104.46 282.63 104.46 282.51C104.46 276.28 99.41 271.23 93.17 271.23C88.81 271.23 73.53 271.23 71.35 271.23C65.11 271.23 60.06 276.28 60.06 282.51C60.06 282.63 60.06 283.61 60.06 283.72Z" id="d2BlEyBa6k"></path><path d="M60.06 283.72C60.06 289.96 65.11 295.01 71.35 295.01C73.53 295.01 91 295.01 93.17 295.01C99.41 295.01 104.46 289.96 104.46 283.72C104.46 283.61 104.46 282.63 104.46 282.51C104.46 276.28 99.41 271.23 93.17 271.23C88.81 271.23 73.53 271.23 71.35 271.23C65.11 271.23 60.06 276.28 60.06 282.51C60.06 282.63 60.06 283.61 60.06 283.72Z" id="c1zgJIKaGK"></path><path d="M60.06 283.72C60.06 289.96 65.11 295.01 71.35 295.01C73.53 295.01 91 295.01 93.17 295.01C99.41 295.01 104.46 289.96 104.46 283.72C104.46 283.61 104.46 282.63 104.46 282.51C104.46 276.28 99.41 271.23 93.17 271.23C88.81 271.23 73.53 271.23 71.35 271.23C65.11 271.23 60.06 276.28 60.06 282.51C60.06 282.63 60.06 283.61 60.06 283.72Z" id="by05sj5"></path><path d="M60.06 283.72C60.06 289.96 65.11 295.01 71.35 295.01C73.53 295.01 91 295.01 93.17 295.01C99.41 295.01 104.46 289.96 104.46 283.72C104.46 283.61 104.46 282.63 104.46 282.51C104.46 276.28 99.41 271.23 93.17 271.23C88.81 271.23 73.53 271.23 71.35 271.23C65.11 271.23 60.06 276.28 60.06 282.51C60.06 282.63 60.06 283.61 60.06 283.72Z" id="a3AEMy9WJn"></path><path d="M170.28 282.51C170.28 276.28 165.23 271.23 159 271.23C156.81 271.23 139.35 271.23 137.16 271.23C130.94 271.23 125.88 276.28 125.88 282.51C125.88 282.63 125.88 283.61 125.88 283.72C125.88 289.96 130.94 295.01 137.16 295.01C141.53 295.01 156.81 295.01 159 295.01C165.23 295.01 170.28 289.96 170.28 283.72C170.28 283.61 170.28 282.63 170.28 282.51Z" id="cOMp3BmHA"></path><path d="M170.28 282.51C170.28 276.28 165.23 271.23 159 271.23C156.81 271.23 139.35 271.23 137.16 271.23C130.94 271.23 125.88 276.28 125.88 282.51C125.88 282.63 125.88 283.61 125.88 283.72C125.88 289.96 130.94 295.01 137.16 295.01C141.53 295.01 156.81 295.01 159 295.01C165.23 295.01 170.28 289.96 170.28 283.72C170.28 283.61 170.28 282.63 170.28 282.51Z" id="aO0gJBbQM"></path><path d="M170.28 282.51C170.28 276.28 165.23 271.23 159 271.23C156.81 271.23 139.35 271.23 137.16 271.23C130.94 271.23 125.88 276.28 125.88 282.51C125.88 282.63 125.88 283.61 125.88 283.72C125.88 289.96 130.94 295.01 137.16 295.01C141.53 295.01 156.81 295.01 159 295.01C165.23 295.01 170.28 289.96 170.28 283.72C170.28 283.61 170.28 282.63 170.28 282.51Z" id="a2zEFTxLXe"></path><path d="M170.28 282.51C170.28 276.28 165.23 271.23 159 271.23C156.81 271.23 139.35 271.23 137.16 271.23C130.94 271.23 125.88 276.28 125.88 282.51C125.88 282.63 125.88 283.61 125.88 283.72C125.88 289.96 130.94 295.01 137.16 295.01C141.53 295.01 156.81 295.01 159 295.01C165.23 295.01 170.28 289.96 170.28 283.72C170.28 283.61 170.28 282.63 170.28 282.51Z" id="b2HUZXwxi9"></path><path d="M224.81 295.01C231.05 295.01 236.09 289.96 236.09 283.72C236.09 283.61 236.09 282.63 236.09 282.51C236.09 276.28 231.05 271.23 224.81 271.23C222.63 271.23 205.17 271.23 202.99 271.23C196.75 271.23 191.71 276.28 191.71 282.51C191.71 282.76 191.71 283.61 191.71 283.72C191.71 289.96 196.75 295.01 202.99 295.01C205.17 295.01 222.63 295.01 224.81 295.01Z" id="f2hsSIKlHg"></path><path d="M224.81 295.01C231.05 295.01 236.09 289.96 236.09 283.72C236.09 283.61 236.09 282.63 236.09 282.51C236.09 276.28 231.05 271.23 224.81 271.23C222.63 271.23 205.17 271.23 202.99 271.23C196.75 271.23 191.71 276.28 191.71 282.51C191.71 282.76 191.71 283.61 191.71 283.72C191.71 289.96 196.75 295.01 202.99 295.01C205.17 295.01 222.63 295.01 224.81 295.01Z" id="bfxFo6keh"></path><path d="M224.81 295.01C231.05 295.01 236.09 289.96 236.09 283.72C236.09 283.61 236.09 282.63 236.09 282.51C236.09 276.28 231.05 271.23 224.81 271.23C222.63 271.23 205.17 271.23 202.99 271.23C196.75 271.23 191.71 276.28 191.71 282.51C191.71 282.76 191.71 283.61 191.71 283.72C191.71 289.96 196.75 295.01 202.99 295.01C205.17 295.01 222.63 295.01 224.81 295.01Z" id="h6A4GLqSk"></path><path d="M224.81 295.01C231.05 295.01 236.09 289.96 236.09 283.72C236.09 283.61 236.09 282.63 236.09 282.51C236.09 276.28 231.05 271.23 224.81 271.23C222.63 271.23 205.17 271.23 202.99 271.23C196.75 271.23 191.71 276.28 191.71 282.51C191.71 282.76 191.71 283.61 191.71 283.72C191.71 289.96 196.75 295.01 202.99 295.01C205.17 295.01 222.63 295.01 224.81 295.01Z" id="a17nd65k3T"></path><path d="M290.64 295.01C296.86 295.01 301.92 289.96 301.92 283.72C301.92 283.61 301.92 282.63 301.92 282.51C301.92 276.28 296.86 271.23 290.64 271.23C288.45 271.23 270.99 271.23 268.8 271.23C262.57 271.23 257.52 276.28 257.52 282.51C257.52 282.76 257.52 283.61 257.52 283.72C257.52 289.96 262.58 295.01 268.8 295.01C270.99 295.01 288.45 295.01 290.64 295.01Z" id="c2cFtSHzHI"></path><path d="M290.64 295.01C296.86 295.01 301.92 289.96 301.92 283.72C301.92 283.61 301.92 282.63 301.92 282.51C301.92 276.28 296.86 271.23 290.64 271.23C288.45 271.23 270.99 271.23 268.8 271.23C262.57 271.23 257.52 276.28 257.52 282.51C257.52 282.76 257.52 283.61 257.52 283.72C257.52 289.96 262.58 295.01 268.8 295.01C270.99 295.01 288.45 295.01 290.64 295.01Z" id="b5dqqt1eIu"></path><path d="M290.64 295.01C296.86 295.01 301.92 289.96 301.92 283.72C301.92 283.61 301.92 282.63 301.92 282.51C301.92 276.28 296.86 271.23 290.64 271.23C288.45 271.23 270.99 271.23 268.8 271.23C262.57 271.23 257.52 276.28 257.52 282.51C257.52 282.76 257.52 283.61 257.52 283.72C257.52 289.96 262.58 295.01 268.8 295.01C270.99 295.01 288.45 295.01 290.64 295.01Z" id="a7e0XWJco"></path><path d="M290.64 295.01C296.86 295.01 301.92 289.96 301.92 283.72C301.92 283.61 301.92 282.63 301.92 282.51C301.92 276.28 296.86 271.23 290.64 271.23C288.45 271.23 270.99 271.23 268.8 271.23C262.57 271.23 257.52 276.28 257.52 282.51C257.52 282.76 257.52 283.61 257.52 283.72C257.52 289.96 262.58 295.01 268.8 295.01C270.99 295.01 288.45 295.01 290.64 295.01Z" id="i2FqTKY8CA"></path><path d="M356.45 295.01C362.69 295.01 367.74 289.96 367.74 283.72C367.74 283.61 367.74 282.63 367.74 282.51C367.74 276.28 362.69 271.23 356.45 271.23C354.27 271.23 336.8 271.23 334.62 271.23C328.39 271.23 323.34 276.28 323.34 282.51C323.34 282.76 323.34 283.61 323.34 283.72C323.34 289.96 328.39 295.01 334.62 295.01C336.8 295.01 354.27 295.01 356.45 295.01Z" id="g21CRa3ipi"></path><path d="M356.45 295.01C362.69 295.01 367.74 289.96 367.74 283.72C367.74 283.61 367.74 282.63 367.74 282.51C367.74 276.28 362.69 271.23 356.45 271.23C354.27 271.23 336.8 271.23 334.62 271.23C328.39 271.23 323.34 276.28 323.34 282.51C323.34 282.76 323.34 283.61 323.34 283.72C323.34 289.96 328.39 295.01 334.62 295.01C336.8 295.01 354.27 295.01 356.45 295.01Z" id="g3RIcdCs0m"></path><path d="M356.45 295.01C362.69 295.01 367.74 289.96 367.74 283.72C367.74 283.61 367.74 282.63 367.74 282.51C367.74 276.28 362.69 271.23 356.45 271.23C354.27 271.23 336.8 271.23 334.62 271.23C328.39 271.23 323.34 276.28 323.34 282.51C323.34 282.76 323.34 283.61 323.34 283.72C323.34 289.96 328.39 295.01 334.62 295.01C336.8 295.01 354.27 295.01 356.45 295.01Z" id="a1HWpMxgdP"></path><path d="M356.45 295.01C362.69 295.01 367.74 289.96 367.74 283.72C367.74 283.61 367.74 282.63 367.74 282.51C367.74 276.28 362.69 271.23 356.45 271.23C354.27 271.23 336.8 271.23 334.62 271.23C328.39 271.23 323.34 276.28 323.34 282.51C323.34 282.76 323.34 283.61 323.34 283.72C323.34 289.96 328.39 295.01 334.62 295.01C336.8 295.01 354.27 295.01 356.45 295.01Z" id="i1EqJnRxLA"></path><path d="M422.36 295.01C428.59 295.01 433.64 289.96 433.64 283.72C433.64 283.61 433.64 282.63 433.64 282.51C433.64 276.28 428.58 271.23 422.36 271.23C420.18 271.23 402.71 271.23 400.52 271.23C394.3 271.23 389.24 276.28 389.24 282.51C389.24 282.76 389.24 283.61 389.24 283.72C389.24 289.96 394.3 295.01 400.52 295.01C402.71 295.01 420.18 295.01 422.36 295.01Z" id="b4WETwN7hX"></path><path d="M422.36 295.01C428.59 295.01 433.64 289.96 433.64 283.72C433.64 283.61 433.64 282.63 433.64 282.51C433.64 276.28 428.58 271.23 422.36 271.23C420.18 271.23 402.71 271.23 400.52 271.23C394.3 271.23 389.24 276.28 389.24 282.51C389.24 282.76 389.24 283.61 389.24 283.72C389.24 289.96 394.3 295.01 400.52 295.01C402.71 295.01 420.18 295.01 422.36 295.01Z" id="bfNrdwuoe"></path><path d="M422.36 295.01C428.59 295.01 433.64 289.96 433.64 283.72C433.64 283.61 433.64 282.63 433.64 282.51C433.64 276.28 428.58 271.23 422.36 271.23C420.18 271.23 402.71 271.23 400.52 271.23C394.3 271.23 389.24 276.28 389.24 282.51C389.24 282.76 389.24 283.61 389.24 283.72C389.24 289.96 394.3 295.01 400.52 295.01C402.71 295.01 420.18 295.01 422.36 295.01Z" id="bAC0jiL74"></path><path d="M422.36 295.01C428.59 295.01 433.64 289.96 433.64 283.72C433.64 283.61 433.64 282.63 433.64 282.51C433.64 276.28 428.58 271.23 422.36 271.23C420.18 271.23 402.71 271.23 400.52 271.23C394.3 271.23 389.24 276.28 389.24 282.51C389.24 282.76 389.24 283.61 389.24 283.72C389.24 289.96 394.3 295.01 400.52 295.01C402.71 295.01 420.18 295.01 422.36 295.01Z" id="b2Vp6lVIGB"></path><path d="M246.9 62.33C239.83 62.33 183.27 62.33 176.19 62.33C171.98 62.33 168.57 65.74 168.57 69.95C168.57 74.16 171.98 77.57 176.19 77.57C190.33 77.57 239.83 77.57 246.9 77.57C251.11 77.57 254.52 74.16 254.52 69.95C254.52 65.74 251.11 62.33 246.9 62.33Z" id="c2wCT18e9h"></path><path d="M246.9 62.33C239.83 62.33 183.27 62.33 176.19 62.33C171.98 62.33 168.57 65.74 168.57 69.95C168.57 74.16 171.98 77.57 176.19 77.57C190.33 77.57 239.83 77.57 246.9 77.57C251.11 77.57 254.52 74.16 254.52 69.95C254.52 65.74 251.11 62.33 246.9 62.33Z" id="i12irKwEQu"></path><path d="M246.9 62.33C239.83 62.33 183.27 62.33 176.19 62.33C171.98 62.33 168.57 65.74 168.57 69.95C168.57 74.16 171.98 77.57 176.19 77.57C190.33 77.57 239.83 77.57 246.9 77.57C251.11 77.57 254.52 74.16 254.52 69.95C254.52 65.74 251.11 62.33 246.9 62.33Z" id="a65gWeVz4"></path><path d="M246.9 62.33C239.83 62.33 183.27 62.33 176.19 62.33C171.98 62.33 168.57 65.74 168.57 69.95C168.57 74.16 171.98 77.57 176.19 77.57C190.33 77.57 239.83 77.57 246.9 77.57C251.11 77.57 254.52 74.16 254.52 69.95C254.52 65.74 251.11 62.33 246.9 62.33Z" id="b78MucDiZA"></path><path d="M324.29 103.16C324.29 98.95 320.88 95.53 316.67 95.53C302.63 95.53 190.24 95.53 176.19 95.53C171.98 95.53 168.57 98.95 168.57 103.16C168.57 107.36 171.98 110.78 176.19 110.78C190.24 110.78 302.63 110.78 316.67 110.78C320.88 110.78 324.29 107.36 324.29 103.16Z" id="bxUvW2cje"></path><path d="M324.29 103.16C324.29 98.95 320.88 95.53 316.67 95.53C302.63 95.53 190.24 95.53 176.19 95.53C171.98 95.53 168.57 98.95 168.57 103.16C168.57 107.36 171.98 110.78 176.19 110.78C190.24 110.78 302.63 110.78 316.67 110.78C320.88 110.78 324.29 107.36 324.29 103.16Z" id="igZJKfiJm"></path><path d="M324.29 103.16C324.29 98.95 320.88 95.53 316.67 95.53C302.63 95.53 190.24 95.53 176.19 95.53C171.98 95.53 168.57 98.95 168.57 103.16C168.57 107.36 171.98 110.78 176.19 110.78C190.24 110.78 302.63 110.78 316.67 110.78C320.88 110.78 324.29 107.36 324.29 103.16Z" id="ayTvQmCtA"></path><path d="M324.29 103.16C324.29 98.95 320.88 95.53 316.67 95.53C302.63 95.53 190.24 95.53 176.19 95.53C171.98 95.53 168.57 98.95 168.57 103.16C168.57 107.36 171.98 110.78 176.19 110.78C190.24 110.78 302.63 110.78 316.67 110.78C320.88 110.78 324.29 107.36 324.29 103.16Z" id="a3DVlXCnyi"></path><path d="M36.52 229.82C24.44 259.83 17.74 276.51 16.39 279.84C14.56 284.39 13.63 289.19 13.63 294.1C13.63 296.37 13.63 314.59 13.63 316.87C13.63 321.08 17.04 324.49 21.26 324.49C25.47 324.49 28.88 321.08 28.88 316.87C28.88 314.59 28.88 296.37 28.88 294.1C28.88 291.15 29.44 288.27 30.54 285.54C34.6 275.45 67.1 194.69 71.17 184.59C74.68 175.86 83.02 170.23 92.42 170.23C99.14 170.23 152.84 170.23 159.56 170.23C162.32 170.23 165.01 171.16 167.14 172.83C170.96 175.83 175.28 178.64 179.95 181.16C183.67 183.15 188.29 181.76 190.29 178.06C192.27 174.35 190.89 169.72 187.19 167.73C183.27 165.63 179.7 163.32 176.56 160.85C171.77 157.06 165.72 154.99 159.56 154.99C157.7 154.99 148.4 154.99 131.69 154.99C131.69 83.02 131.69 43.04 131.69 35.04C131.69 31.1 134.89 27.9 138.83 27.9C154.42 27.9 279.17 27.9 294.76 27.9C298.97 27.9 302.38 24.48 302.38 20.27C302.38 16.06 298.97 12.65 294.76 12.65C279.17 12.65 154.42 12.65 138.83 12.65C126.48 12.65 116.44 22.7 116.44 35.04C116.43 43.04 116.43 83.02 116.44 154.99C102.03 154.99 94.03 154.99 92.42 154.99C81.5 154.99 71.44 159.56 64.36 167.27C61.6 160.09 54.66 154.99 46.53 154.99C46.4 154.99 45.41 154.99 45.28 154.99C34.74 154.99 26.15 163.56 26.15 174.12C26.15 175.28 26.15 181.06 26.15 191.49C22.16 204.46 20.43 212.21 20.97 214.74C21.14 215.52 21.74 218.29 21.82 218.69C22.5 221.84 24.62 224.47 27.57 225.79C28.16 226.06 31.15 227.41 36.52 229.82ZM50.41 174.12C50.41 176.2 50.41 192.88 50.41 194.98C50.41 195.08 50.42 195.19 50.42 195.29C50.26 195.69 49.45 197.69 48 201.3C43.64 199.35 41.21 198.25 40.72 198.04C41.15 197.08 41.4 196.02 41.4 194.92C41.4 193.53 41.4 186.6 41.4 174.12C42.56 171.52 43.85 170.23 45.28 170.23C45.41 170.23 46.4 170.23 46.52 170.23C48.66 170.23 50.41 171.97 50.41 174.12Z" id="b8rrHLDjy"></path><path d="M36.52 229.82C24.44 259.83 17.74 276.51 16.39 279.84C14.56 284.39 13.63 289.19 13.63 294.1C13.63 296.37 13.63 314.59 13.63 316.87C13.63 321.08 17.04 324.49 21.26 324.49C25.47 324.49 28.88 321.08 28.88 316.87C28.88 314.59 28.88 296.37 28.88 294.1C28.88 291.15 29.44 288.27 30.54 285.54C34.6 275.45 67.1 194.69 71.17 184.59C74.68 175.86 83.02 170.23 92.42 170.23C99.14 170.23 152.84 170.23 159.56 170.23C162.32 170.23 165.01 171.16 167.14 172.83C170.96 175.83 175.28 178.64 179.95 181.16C183.67 183.15 188.29 181.76 190.29 178.06C192.27 174.35 190.89 169.72 187.19 167.73C183.27 165.63 179.7 163.32 176.56 160.85C171.77 157.06 165.72 154.99 159.56 154.99C157.7 154.99 148.4 154.99 131.69 154.99C131.69 83.02 131.69 43.04 131.69 35.04C131.69 31.1 134.89 27.9 138.83 27.9C154.42 27.9 279.17 27.9 294.76 27.9C298.97 27.9 302.38 24.48 302.38 20.27C302.38 16.06 298.97 12.65 294.76 12.65C279.17 12.65 154.42 12.65 138.83 12.65C126.48 12.65 116.44 22.7 116.44 35.04C116.43 43.04 116.43 83.02 116.44 154.99C102.03 154.99 94.03 154.99 92.42 154.99C81.5 154.99 71.44 159.56 64.36 167.27C61.6 160.09 54.66 154.99 46.53 154.99C46.4 154.99 45.41 154.99 45.28 154.99C34.74 154.99 26.15 163.56 26.15 174.12C26.15 175.28 26.15 181.06 26.15 191.49C22.16 204.46 20.43 212.21 20.97 214.74C21.14 215.52 21.74 218.29 21.82 218.69C22.5 221.84 24.62 224.47 27.57 225.79C28.16 226.06 31.15 227.41 36.52 229.82ZM50.41 174.12C50.41 176.2 50.41 192.88 50.41 194.98C50.41 195.08 50.42 195.19 50.42 195.29C50.26 195.69 49.45 197.69 48 201.3C43.64 199.35 41.21 198.25 40.72 198.04C41.15 197.08 41.4 196.02 41.4 194.92C41.4 193.53 41.4 186.6 41.4 174.12C42.56 171.52 43.85 170.23 45.28 170.23C45.41 170.23 46.4 170.23 46.52 170.23C48.66 170.23 50.41 171.97 50.41 174.12Z" id="dPeByYztU"></path><path d="M36.52 229.82C24.44 259.83 17.74 276.51 16.39 279.84C14.56 284.39 13.63 289.19 13.63 294.1C13.63 296.37 13.63 314.59 13.63 316.87C13.63 321.08 17.04 324.49 21.26 324.49C25.47 324.49 28.88 321.08 28.88 316.87C28.88 314.59 28.88 296.37 28.88 294.1C28.88 291.15 29.44 288.27 30.54 285.54C34.6 275.45 67.1 194.69 71.17 184.59C74.68 175.86 83.02 170.23 92.42 170.23C99.14 170.23 152.84 170.23 159.56 170.23C162.32 170.23 165.01 171.16 167.14 172.83C170.96 175.83 175.28 178.64 179.95 181.16C183.67 183.15 188.29 181.76 190.29 178.06C192.27 174.35 190.89 169.72 187.19 167.73C183.27 165.63 179.7 163.32 176.56 160.85C171.77 157.06 165.72 154.99 159.56 154.99C157.7 154.99 148.4 154.99 131.69 154.99C131.69 83.02 131.69 43.04 131.69 35.04C131.69 31.1 134.89 27.9 138.83 27.9C154.42 27.9 279.17 27.9 294.76 27.9C298.97 27.9 302.38 24.48 302.38 20.27C302.38 16.06 298.97 12.65 294.76 12.65C279.17 12.65 154.42 12.65 138.83 12.65C126.48 12.65 116.44 22.7 116.44 35.04C116.43 43.04 116.43 83.02 116.44 154.99C102.03 154.99 94.03 154.99 92.42 154.99C81.5 154.99 71.44 159.56 64.36 167.27C61.6 160.09 54.66 154.99 46.53 154.99C46.4 154.99 45.41 154.99 45.28 154.99C34.74 154.99 26.15 163.56 26.15 174.12C26.15 175.28 26.15 181.06 26.15 191.49C22.16 204.46 20.43 212.21 20.97 214.74C21.14 215.52 21.74 218.29 21.82 218.69C22.5 221.84 24.62 224.47 27.57 225.79C28.16 226.06 31.15 227.41 36.52 229.82ZM50.41 174.12C50.41 176.2 50.41 192.88 50.41 194.98C50.41 195.08 50.42 195.19 50.42 195.29C50.26 195.69 49.45 197.69 48 201.3C43.64 199.35 41.21 198.25 40.72 198.04C41.15 197.08 41.4 196.02 41.4 194.92C41.4 193.53 41.4 186.6 41.4 174.12C42.56 171.52 43.85 170.23 45.28 170.23C45.41 170.23 46.4 170.23 46.52 170.23C48.66 170.23 50.41 171.97 50.41 174.12Z" id="a2Jwe3A1vl"></path><path d="M36.52 229.82C24.44 259.83 17.74 276.51 16.39 279.84C14.56 284.39 13.63 289.19 13.63 294.1C13.63 296.37 13.63 314.59 13.63 316.87C13.63 321.08 17.04 324.49 21.26 324.49C25.47 324.49 28.88 321.08 28.88 316.87C28.88 314.59 28.88 296.37 28.88 294.1C28.88 291.15 29.44 288.27 30.54 285.54C34.6 275.45 67.1 194.69 71.17 184.59C74.68 175.86 83.02 170.23 92.42 170.23C99.14 170.23 152.84 170.23 159.56 170.23C162.32 170.23 165.01 171.16 167.14 172.83C170.96 175.83 175.28 178.64 179.95 181.16C183.67 183.15 188.29 181.76 190.29 178.06C192.27 174.35 190.89 169.72 187.19 167.73C183.27 165.63 179.7 163.32 176.56 160.85C171.77 157.06 165.72 154.99 159.56 154.99C157.7 154.99 148.4 154.99 131.69 154.99C131.69 83.02 131.69 43.04 131.69 35.04C131.69 31.1 134.89 27.9 138.83 27.9C154.42 27.9 279.17 27.9 294.76 27.9C298.97 27.9 302.38 24.48 302.38 20.27C302.38 16.06 298.97 12.65 294.76 12.65C279.17 12.65 154.42 12.65 138.83 12.65C126.48 12.65 116.44 22.7 116.44 35.04C116.43 43.04 116.43 83.02 116.44 154.99C102.03 154.99 94.03 154.99 92.42 154.99C81.5 154.99 71.44 159.56 64.36 167.27C61.6 160.09 54.66 154.99 46.53 154.99C46.4 154.99 45.41 154.99 45.28 154.99C34.74 154.99 26.15 163.56 26.15 174.12C26.15 175.28 26.15 181.06 26.15 191.49C22.16 204.46 20.43 212.21 20.97 214.74C21.14 215.52 21.74 218.29 21.82 218.69C22.5 221.84 24.62 224.47 27.57 225.79C28.16 226.06 31.15 227.41 36.52 229.82ZM50.41 174.12C50.41 176.2 50.41 192.88 50.41 194.98C50.41 195.08 50.42 195.19 50.42 195.29C50.26 195.69 49.45 197.69 48 201.3C43.64 199.35 41.21 198.25 40.72 198.04C41.15 197.08 41.4 196.02 41.4 194.92C41.4 193.53 41.4 186.6 41.4 174.12C42.56 171.52 43.85 170.23 45.28 170.23C45.41 170.23 46.4 170.23 46.52 170.23C48.66 170.23 50.41 171.97 50.41 174.12Z" id="dkJxamo98"></path></defs><g><g><g><use xlink:href="#a2sZi74kI" opacity="1" fill="#000000" fill-opacity="0"></use><g><use xlink:href="#a2sZi74kI" opacity="1" fill-opacity="0" stroke="#000000" stroke-width="1" stroke-opacity="0"></use></g></g><g><use xlink:href="#a13FsC0uF" opacity="1" fill="#000000" fill-opacity="0"></use><g><use xlink:href="#a13FsC0uF" opacity="1" fill-opacity="0" stroke="#000000" stroke-width="1" stroke-opacity="0"></use></g></g><g><use xlink:href="#b1I0pNCjEE" opacity="1" fill="#a698a6" fill-opacity="1"></use><g><use xlink:href="#b1I0pNCjEE" opacity="1" fill-opacity="0" stroke="#000000" stroke-width="1" stroke-opacity="0"></use></g></g><g><use xlink:href="#c1QbWwxN9s" opacity="1" fill="#000000" fill-opacity="0"></use><g><use xlink:href="#c1QbWwxN9s" opacity="1" fill-opacity="0" stroke="#000000" stroke-width="1" stroke-opacity="0"></use></g></g><g><use xlink:href="#a3dmyrQPi" opacity="1" fill="#000000" fill-opacity="0"></use><g><use xlink:href="#a3dmyrQPi" opacity="1" fill-opacity="0" stroke="#000000" stroke-width="1" stroke-opacity="0"></use></g></g><g><use xlink:href="#a1wrZAzLNj" opacity="1" fill="#000000" fill-opacity="0"></use><g><use xlink:href="#a1wrZAzLNj" opacity="1" fill-opacity="0" stroke="#000000" stroke-width="1" stroke-opacity="0"></use></g></g><g><use xlink:href="#i2HHsNHl28" opacity="1" fill="#8f818f" fill-opacity="1"></use><g><use xlink:href="#i2HHsNHl28" opacity="1" fill-opacity="0" stroke="#000000" stroke-width="1" stroke-opacity="0"></use></g></g><g><use xlink:href="#a2KlZM1BJG" opacity="1" fill="#000000" fill-opacity="0"></use><g><use xlink:href="#a2KlZM1BJG" opacity="1" fill-opacity="0" stroke="#000000" stroke-width="1" stroke-opacity="0"></use></g></g><g><use xlink:href="#fswmfMUA9" opacity="1" fill="#000000" fill-opacity="0"></use><g><use xlink:href="#fswmfMUA9" opacity="1" fill-opacity="0" stroke="#000000" stroke-width="1" stroke-opacity="0"></use></g></g><g><use xlink:href="#d100AlD9qH" opacity="1" fill="#000000" fill-opacity="0"></use><g><use xlink:href="#d100AlD9qH" opacity="1" fill-opacity="0" stroke="#000000" stroke-width="1" stroke-opacity="0"></use></g></g><g><use xlink:href="#c2rWRMLlju" opacity="1" fill="#695e66" fill-opacity="1"></use><g><use xlink:href="#c2rWRMLlju" opacity="1" fill-opacity="0" stroke="#000000" stroke-width="1" stroke-opacity="0"></use></g></g><g><use xlink:href="#c9bHetGFk1" opacity="1" fill="#000000" fill-opacity="0"></use><g><use xlink:href="#c9bHetGFk1" opacity="1" fill-opacity="0" stroke="#000000" stroke-width="1" stroke-opacity="0"></use></g></g><g><use xlink:href="#aaG5mnCux" opacity="1" fill="#000000" fill-opacity="0"></use><g><use xlink:href="#aaG5mnCux" opacity="1" fill-opacity="0" stroke="#000000" stroke-width="1" stroke-opacity="0"></use></g></g><g><use xlink:href="#f2A970hwXc" opacity="1" fill="#000000" fill-opacity="0"></use><g><use xlink:href="#f2A970hwXc" opacity="1" fill-opacity="0" stroke="#000000" stroke-width="1" stroke-opacity="0"></use></g></g><g><use xlink:href="#b6qzUqtYj" opacity="1" fill="#554e57" fill-opacity="1"></use><g><use xlink:href="#b6qzUqtYj" opacity="1" fill-opacity="0" stroke="#000000" stroke-width="1" stroke-opacity="0"></use></g></g><g><use xlink:href="#fGvCGAbqA" opacity="1" fill="#000000" fill-opacity="0"></use><g><use xlink:href="#fGvCGAbqA" opacity="1" fill-opacity="0" stroke="#000000" stroke-width="1" stroke-opacity="0"></use></g></g><g><use xlink:href="#b795ymWS6m" opacity="1" fill="#000000" fill-opacity="0"></use><g><use xlink:href="#b795ymWS6m" opacity="1" fill-opacity="0" stroke="#000000" stroke-width="1" stroke-opacity="0"></use></g></g><g><use xlink:href="#adcshe2U" opacity="1" fill="#000000" fill-opacity="0"></use><g><use xlink:href="#adcshe2U" opacity="1" fill-opacity="0" stroke="#000000" stroke-width="1" stroke-opacity="0"></use></g></g><g><use xlink:href="#adqllK08" opacity="1" fill="#eedfda" fill-opacity="1"></use><g><use xlink:href="#adqllK08" opacity="1" fill-opacity="0" stroke="#000000" stroke-width="1" stroke-opacity="0"></use></g></g><g><use xlink:href="#b6TEXolw7" opacity="1" fill="#000000" fill-opacity="0"></use><g><use xlink:href="#b6TEXolw7" opacity="1" fill-opacity="0" stroke="#000000" stroke-width="1" stroke-opacity="0"></use></g></g><g><use xlink:href="#b2T2nc3ev1" opacity="1" fill="#000000" fill-opacity="0"></use><g><use xlink:href="#b2T2nc3ev1" opacity="1" fill-opacity="0" stroke="#000000" stroke-width="1" stroke-opacity="0"></use></g></g><g><use xlink:href="#a17A3GVmNn" opacity="1" fill="#000000" fill-opacity="0"></use><g><use xlink:href="#a17A3GVmNn" opacity="1" fill-opacity="0" stroke="#000000" stroke-width="1" stroke-opacity="0"></use></g></g><g><use xlink:href="#aipDjGumb" opacity="1" fill="#ded0cb" fill-opacity="1"></use><g><use xlink:href="#aipDjGumb" opacity="1" fill-opacity="0" stroke="#000000" stroke-width="1" stroke-opacity="0"></use></g></g><g><use xlink:href="#bNH2rRMvS" opacity="1" fill="#000000" fill-opacity="0"></use><g><use xlink:href="#bNH2rRMvS" opacity="1" fill-opacity="0" stroke="#000000" stroke-width="1" stroke-opacity="0"></use></g></g><g><use xlink:href="#cts0UWGUZ" opacity="1" fill="#000000" fill-opacity="0"></use><g><use xlink:href="#cts0UWGUZ" opacity="1" fill-opacity="0" stroke="#000000" stroke-width="1" stroke-opacity="0"></use></g></g><g><use xlink:href="#b7XzobHdF" opacity="1" fill="#000000" fill-opacity="0"></use><g><use xlink:href="#b7XzobHdF" opacity="1" fill-opacity="0" stroke="#000000" stroke-width="1" stroke-opacity="0"></use></g></g><g><use xlink:href="#bIzXaEEkQ" opacity="1" fill="#a698a6" fill-opacity="1"></use><g><use xlink:href="#bIzXaEEkQ" opacity="1" fill-opacity="0" stroke="#000000" stroke-width="1" stroke-opacity="0"></use></g></g><g><use xlink:href="#cPNg6aEIt" opacity="1" fill="#000000" fill-opacity="0"></use><g><use xlink:href="#cPNg6aEIt" opacity="1" fill-opacity="0" stroke="#000000" stroke-width="1" stroke-opacity="0"></use></g></g><g><use xlink:href="#ecgAlRZbF" opacity="1" fill="#000000" fill-opacity="0"></use><g><use xlink:href="#ecgAlRZbF" opacity="1" fill-opacity="0" stroke="#000000" stroke-width="1" stroke-opacity="0"></use></g></g><g><use xlink:href="#a4sAAp4GtV" opacity="1" fill="#000000" fill-opacity="0"></use><g><use xlink:href="#a4sAAp4GtV" opacity="1" fill-opacity="0" stroke="#000000" stroke-width="1" stroke-opacity="0"></use></g></g><g><use xlink:href="#f5LXILwL5" opacity="1" fill="#8f818f" fill-opacity="1"></use><g><use xlink:href="#f5LXILwL5" opacity="1" fill-opacity="0" stroke="#000000" stroke-width="1" stroke-opacity="0"></use></g></g><g><use xlink:href="#a1LdIzTXk" opacity="1" fill="#000000" fill-opacity="0"></use><g><use xlink:href="#a1LdIzTXk" opacity="1" fill-opacity="0" stroke="#000000" stroke-width="1" stroke-opacity="0"></use></g></g><g><use xlink:href="#a4I41q2yO" opacity="1" fill="#000000" fill-opacity="0"></use><g><use xlink:href="#a4I41q2yO" opacity="1" fill-opacity="0" stroke="#000000" stroke-width="1" stroke-opacity="0"></use></g></g><g><use xlink:href="#bsyy9nTgv" opacity="1" fill="#000000" fill-opacity="0"></use><g><use xlink:href="#bsyy9nTgv" opacity="1" fill-opacity="0" stroke="#000000" stroke-width="1" stroke-opacity="0"></use></g></g><g><use xlink:href="#f4YNCTMgEO" opacity="1" fill="#695e66" fill-opacity="1"></use><g><use xlink:href="#f4YNCTMgEO" opacity="1" fill-opacity="0" stroke="#000000" stroke-width="1" stroke-opacity="0"></use></g></g><g><use xlink:href="#a1E4qZeQJy" opacity="1" fill="#000000" fill-opacity="0"></use><g><use xlink:href="#a1E4qZeQJy" opacity="1" fill-opacity="0" stroke="#000000" stroke-width="1" stroke-opacity="0"></use></g></g><g><use xlink:href="#c2KlHsKH8P" opacity="1" fill="#00b8cc" fill-opacity="1"></use><g><use xlink:href="#c2KlHsKH8P" opacity="1" fill-opacity="0" stroke="#000000" stroke-width="1" stroke-opacity="0"></use></g></g><g><use xlink:href="#b17ovwEbI" opacity="1" fill="#000000" fill-opacity="0"></use><g><use xlink:href="#b17ovwEbI" opacity="1" fill-opacity="0" stroke="#000000" stroke-width="1" stroke-opacity="0"></use></g></g><g><use xlink:href="#b5ICpsNXEC" opacity="1" fill="#554e57" fill-opacity="1"></use><g><use xlink:href="#b5ICpsNXEC" opacity="1" fill-opacity="0" stroke="#000000" stroke-width="1" stroke-opacity="0"></use></g></g><g><use xlink:href="#c3FZgw4kyz" opacity="1" fill="#000000" fill-opacity="0"></use><g><use xlink:href="#c3FZgw4kyz" opacity="1" fill-opacity="0" stroke="#000000" stroke-width="1" stroke-opacity="0"></use></g></g><g><use xlink:href="#a4SM5e2zAg" opacity="1" fill="#008796" fill-opacity="1"></use><g><use xlink:href="#a4SM5e2zAg" opacity="1" fill-opacity="0" stroke="#000000" stroke-width="1" stroke-opacity="0"></use></g></g><g><use xlink:href="#bnwLZ19u2" opacity="1" fill="#000000" fill-opacity="0"></use><g><use xlink:href="#bnwLZ19u2" opacity="1" fill-opacity="0" stroke="#000000" stroke-width="1" stroke-opacity="0"></use></g></g><g><use xlink:href="#b3kWxOMnS" opacity="1" fill="#000000" fill-opacity="1"></use><g><use xlink:href="#b3kWxOMnS" opacity="1" fill-opacity="0" stroke="#000000" stroke-width="1" stroke-opacity="0"></use></g></g><g><use xlink:href="#aK52t9zY3" opacity="1" fill="#000000" fill-opacity="0"></use><g><use xlink:href="#aK52t9zY3" opacity="1" fill-opacity="0" stroke="#000000" stroke-width="1" stroke-opacity="0"></use></g></g><g><use xlink:href="#c1btmQVN3j" opacity="1" fill="#000000" fill-opacity="0"></use><g><use xlink:href="#c1btmQVN3j" opacity="1" fill-opacity="0" stroke="#000000" stroke-width="1" stroke-opacity="0"></use></g></g><g><use xlink:href="#a1vMbfOh6C" opacity="1" fill="#000000" fill-opacity="0"></use><g><use xlink:href="#a1vMbfOh6C" opacity="1" fill-opacity="0" stroke="#000000" stroke-width="1" stroke-opacity="0"></use></g></g><g><use xlink:href="#bAZ56SB7w" opacity="1" fill="#000000" fill-opacity="1"></use><g><use xlink:href="#bAZ56SB7w" opacity="1" fill-opacity="0" stroke="#000000" stroke-width="1" stroke-opacity="0"></use></g></g><g><use xlink:href="#b1Av3fqjzN" opacity="1" fill="#000000" fill-opacity="0"></use><g><use xlink:href="#b1Av3fqjzN" opacity="1" fill-opacity="0" stroke="#000000" stroke-width="1" stroke-opacity="0"></use></g></g><g><use xlink:href="#aIKP9uFes" opacity="1" fill="#000000" fill-opacity="0"></use><g><use xlink:href="#aIKP9uFes" opacity="1" fill-opacity="0" stroke="#000000" stroke-width="1" stroke-opacity="0"></use></g></g><g><use xlink:href="#b2GgmJu7z" opacity="1" fill="#000000" fill-opacity="0"></use><g><use xlink:href="#b2GgmJu7z" opacity="1" fill-opacity="0" stroke="#000000" stroke-width="1" stroke-opacity="0"></use></g></g><g><use xlink:href="#br911FeLF" opacity="1" fill="#000000" fill-opacity="1"></use><g><use xlink:href="#br911FeLF" opacity="1" fill-opacity="0" stroke="#000000" stroke-width="1" stroke-opacity="0"></use></g></g><g><use xlink:href="#j4bnn5aqym" opacity="1" fill="#000000" fill-opacity="0"></use><g><use xlink:href="#j4bnn5aqym" opacity="1" fill-opacity="0" stroke="#000000" stroke-width="1" stroke-opacity="0"></use></g></g><g><use xlink:href="#ayJGSjwjJ" opacity="1" fill="#000000" fill-opacity="0"></use><g><use xlink:href="#ayJGSjwjJ" opacity="1" fill-opacity="0" stroke="#000000" stroke-width="1" stroke-opacity="0"></use></g></g><g><use xlink:href="#d28wNmcfPH" opacity="1" fill="#000000" fill-opacity="0"></use><g><use xlink:href="#d28wNmcfPH" opacity="1" fill-opacity="0" stroke="#000000" stroke-width="1" stroke-opacity="0"></use></g></g><g><use xlink:href="#a50nm3zhgU" opacity="1" fill="#000000" fill-opacity="1"></use><g><use xlink:href="#a50nm3zhgU" opacity="1" fill-opacity="0" stroke="#000000" stroke-width="1" stroke-opacity="0"></use></g></g><g><use xlink:href="#h3Gf2tSH4" opacity="1" fill="#000000" fill-opacity="0"></use><g><use xlink:href="#h3Gf2tSH4" opacity="1" fill-opacity="0" stroke="#000000" stroke-width="1" stroke-opacity="0"></use></g></g><g><use xlink:href="#azaT64tnx" opacity="1" fill="#000000" fill-opacity="0"></use><g><use xlink:href="#azaT64tnx" opacity="1" fill-opacity="0" stroke="#000000" stroke-width="1" stroke-opacity="0"></use></g></g><g><use xlink:href="#bgNaJA1Y" opacity="1" fill="#000000" fill-opacity="0"></use><g><use xlink:href="#bgNaJA1Y" opacity="1" fill-opacity="0" stroke="#000000" stroke-width="1" stroke-opacity="0"></use></g></g><g><use xlink:href="#bjrDvniYK" opacity="1" fill="#000000" fill-opacity="1"></use><g><use xlink:href="#bjrDvniYK" opacity="1" fill-opacity="0" stroke="#000000" stroke-width="1" stroke-opacity="0"></use></g></g><g><use xlink:href="#c1UbJroHGc" opacity="1" fill="#000000" fill-opacity="0"></use><g><use xlink:href="#c1UbJroHGc" opacity="1" fill-opacity="0" stroke="#000000" stroke-width="1" stroke-opacity="0"></use></g></g><g><use xlink:href="#a1dbXTsd7Z" opacity="1" fill="#000000" fill-opacity="0"></use><g><use xlink:href="#a1dbXTsd7Z" opacity="1" fill-opacity="0" stroke="#000000" stroke-width="1" stroke-opacity="0"></use></g></g><g><use xlink:href="#a4xI8DyyuJ" opacity="1" fill="#000000" fill-opacity="0"></use><g><use xlink:href="#a4xI8DyyuJ" opacity="1" fill-opacity="0" stroke="#000000" stroke-width="1" stroke-opacity="0"></use></g></g><g><use xlink:href="#b1hxFoCNAl" opacity="1" fill="#000000" fill-opacity="1"></use><g><use xlink:href="#b1hxFoCNAl" opacity="1" fill-opacity="0" stroke="#000000" stroke-width="1" stroke-opacity="0"></use></g></g><g><use xlink:href="#bBkox5jCY" opacity="1" fill="#000000" fill-opacity="0"></use><g><use xlink:href="#bBkox5jCY" opacity="1" fill-opacity="0" stroke="#000000" stroke-width="1" stroke-opacity="0"></use></g></g><g><use xlink:href="#d3rCmFL86g" opacity="1" fill="#000000" fill-opacity="0"></use><g><use xlink:href="#d3rCmFL86g" opacity="1" fill-opacity="0" stroke="#000000" stroke-width="1" stroke-opacity="0"></use></g></g><g><use xlink:href="#a3vTRsXti" opacity="1" fill="#000000" fill-opacity="0"></use><g><use xlink:href="#a3vTRsXti" opacity="1" fill-opacity="0" stroke="#000000" stroke-width="1" stroke-opacity="0"></use></g></g><g><use xlink:href="#d2BlEyBa6k" opacity="1" fill="#000000" fill-opacity="1"></use><g><use xlink:href="#d2BlEyBa6k" opacity="1" fill-opacity="0" stroke="#000000" stroke-width="1" stroke-opacity="0"></use></g></g><g><use xlink:href="#c1zgJIKaGK" opacity="1" fill="#000000" fill-opacity="0"></use><g><use xlink:href="#c1zgJIKaGK" opacity="1" fill-opacity="0" stroke="#000000" stroke-width="1" stroke-opacity="0"></use></g></g><g><use xlink:href="#by05sj5" opacity="1" fill="#000000" fill-opacity="0"></use><g><use xlink:href="#by05sj5" opacity="1" fill-opacity="0" stroke="#000000" stroke-width="1" stroke-opacity="0"></use></g></g><g><use xlink:href="#a3AEMy9WJn" opacity="1" fill="#000000" fill-opacity="0"></use><g><use xlink:href="#a3AEMy9WJn" opacity="1" fill-opacity="0" stroke="#000000" stroke-width="1" stroke-opacity="0"></use></g></g><g><use xlink:href="#cOMp3BmHA" opacity="1" fill="#000000" fill-opacity="1"></use><g><use xlink:href="#cOMp3BmHA" opacity="1" fill-opacity="0" stroke="#000000" stroke-width="1" stroke-opacity="0"></use></g></g><g><use xlink:href="#aO0gJBbQM" opacity="1" fill="#000000" fill-opacity="0"></use><g><use xlink:href="#aO0gJBbQM" opacity="1" fill-opacity="0" stroke="#000000" stroke-width="1" stroke-opacity="0"></use></g></g><g><use xlink:href="#a2zEFTxLXe" opacity="1" fill="#000000" fill-opacity="0"></use><g><use xlink:href="#a2zEFTxLXe" opacity="1" fill-opacity="0" stroke="#000000" stroke-width="1" stroke-opacity="0"></use></g></g><g><use xlink:href="#b2HUZXwxi9" opacity="1" fill="#000000" fill-opacity="0"></use><g><use xlink:href="#b2HUZXwxi9" opacity="1" fill-opacity="0" stroke="#000000" stroke-width="1" stroke-opacity="0"></use></g></g><g><use xlink:href="#f2hsSIKlHg" opacity="1" fill="#000000" fill-opacity="1"></use><g><use xlink:href="#f2hsSIKlHg" opacity="1" fill-opacity="0" stroke="#000000" stroke-width="1" stroke-opacity="0"></use></g></g><g><use xlink:href="#bfxFo6keh" opacity="1" fill="#000000" fill-opacity="0"></use><g><use xlink:href="#bfxFo6keh" opacity="1" fill-opacity="0" stroke="#000000" stroke-width="1" stroke-opacity="0"></use></g></g><g><use xlink:href="#h6A4GLqSk" opacity="1" fill="#000000" fill-opacity="0"></use><g><use xlink:href="#h6A4GLqSk" opacity="1" fill-opacity="0" stroke="#000000" stroke-width="1" stroke-opacity="0"></use></g></g><g><use xlink:href="#a17nd65k3T" opacity="1" fill="#000000" fill-opacity="0"></use><g><use xlink:href="#a17nd65k3T" opacity="1" fill-opacity="0" stroke="#000000" stroke-width="1" stroke-opacity="0"></use></g></g><g><use xlink:href="#c2cFtSHzHI" opacity="1" fill="#000000" fill-opacity="1"></use><g><use xlink:href="#c2cFtSHzHI" opacity="1" fill-opacity="0" stroke="#000000" stroke-width="1" stroke-opacity="0"></use></g></g><g><use xlink:href="#b5dqqt1eIu" opacity="1" fill="#000000" fill-opacity="0"></use><g><use xlink:href="#b5dqqt1eIu" opacity="1" fill-opacity="0" stroke="#000000" stroke-width="1" stroke-opacity="0"></use></g></g><g><use xlink:href="#a7e0XWJco" opacity="1" fill="#000000" fill-opacity="0"></use><g><use xlink:href="#a7e0XWJco" opacity="1" fill-opacity="0" stroke="#000000" stroke-width="1" stroke-opacity="0"></use></g></g><g><use xlink:href="#i2FqTKY8CA" opacity="1" fill="#000000" fill-opacity="0"></use><g><use xlink:href="#i2FqTKY8CA" opacity="1" fill-opacity="0" stroke="#000000" stroke-width="1" stroke-opacity="0"></use></g></g><g><use xlink:href="#g21CRa3ipi" opacity="1" fill="#000000" fill-opacity="1"></use><g><use xlink:href="#g21CRa3ipi" opacity="1" fill-opacity="0" stroke="#000000" stroke-width="1" stroke-opacity="0"></use></g></g><g><use xlink:href="#g3RIcdCs0m" opacity="1" fill="#000000" fill-opacity="0"></use><g><use xlink:href="#g3RIcdCs0m" opacity="1" fill-opacity="0" stroke="#000000" stroke-width="1" stroke-opacity="0"></use></g></g><g><use xlink:href="#a1HWpMxgdP" opacity="1" fill="#000000" fill-opacity="0"></use><g><use xlink:href="#a1HWpMxgdP" opacity="1" fill-opacity="0" stroke="#000000" stroke-width="1" stroke-opacity="0"></use></g></g><g><use xlink:href="#i1EqJnRxLA" opacity="1" fill="#000000" fill-opacity="0"></use><g><use xlink:href="#i1EqJnRxLA" opacity="1" fill-opacity="0" stroke="#000000" stroke-width="1" stroke-opacity="0"></use></g></g><g><use xlink:href="#b4WETwN7hX" opacity="1" fill="#000000" fill-opacity="1"></use><g><use xlink:href="#b4WETwN7hX" opacity="1" fill-opacity="0" stroke="#000000" stroke-width="1" stroke-opacity="0"></use></g></g><g><use xlink:href="#bfNrdwuoe" opacity="1" fill="#000000" fill-opacity="0"></use><g><use xlink:href="#bfNrdwuoe" opacity="1" fill-opacity="0" stroke="#000000" stroke-width="1" stroke-opacity="0"></use></g></g><g><use xlink:href="#bAC0jiL74" opacity="1" fill="#000000" fill-opacity="0"></use><g><use xlink:href="#bAC0jiL74" opacity="1" fill-opacity="0" stroke="#000000" stroke-width="1" stroke-opacity="0"></use></g></g><g><use xlink:href="#b2Vp6lVIGB" opacity="1" fill="#000000" fill-opacity="0"></use><g><use xlink:href="#b2Vp6lVIGB" opacity="1" fill-opacity="0" stroke="#000000" stroke-width="1" stroke-opacity="0"></use></g></g><g><use xlink:href="#c2wCT18e9h" opacity="1" fill="#000000" fill-opacity="1"></use><g><use xlink:href="#c2wCT18e9h" opacity="1" fill-opacity="0" stroke="#000000" stroke-width="1" stroke-opacity="0"></use></g></g><g><use xlink:href="#i12irKwEQu" opacity="1" fill="#000000" fill-opacity="0"></use><g><use xlink:href="#i12irKwEQu" opacity="1" fill-opacity="0" stroke="#000000" stroke-width="1" stroke-opacity="0"></use></g></g><g><use xlink:href="#a65gWeVz4" opacity="1" fill="#000000" fill-opacity="0"></use><g><use xlink:href="#a65gWeVz4" opacity="1" fill-opacity="0" stroke="#000000" stroke-width="1" stroke-opacity="0"></use></g></g><g><use xlink:href="#b78MucDiZA" opacity="1" fill="#000000" fill-opacity="0"></use><g><use xlink:href="#b78MucDiZA" opacity="1" fill-opacity="0" stroke="#000000" stroke-width="1" stroke-opacity="0"></use></g></g><g><use xlink:href="#bxUvW2cje" opacity="1" fill="#000000" fill-opacity="1"></use><g><use xlink:href="#bxUvW2cje" opacity="1" fill-opacity="0" stroke="#000000" stroke-width="1" stroke-opacity="0"></use></g></g><g><use xlink:href="#igZJKfiJm" opacity="1" fill="#000000" fill-opacity="0"></use><g><use xlink:href="#igZJKfiJm" opacity="1" fill-opacity="0" stroke="#000000" stroke-width="1" stroke-opacity="0"></use></g></g><g><use xlink:href="#ayTvQmCtA" opacity="1" fill="#000000" fill-opacity="0"></use><g><use xlink:href="#ayTvQmCtA" opacity="1" fill-opacity="0" stroke="#000000" stroke-width="1" stroke-opacity="0"></use></g></g><g><use xlink:href="#a3DVlXCnyi" opacity="1" fill="#000000" fill-opacity="0"></use><g><use xlink:href="#a3DVlXCnyi" opacity="1" fill-opacity="0" stroke="#000000" stroke-width="1" stroke-opacity="0"></use></g></g><g><use xlink:href="#b8rrHLDjy" opacity="1" fill="#000000" fill-opacity="1"></use><g><use xlink:href="#b8rrHLDjy" opacity="1" fill-opacity="0" stroke="#000000" stroke-width="1" stroke-opacity="0"></use></g></g><g><use xlink:href="#dPeByYztU" opacity="1" fill="#000000" fill-opacity="0"></use><g><use xlink:href="#dPeByYztU" opacity="1" fill-opacity="0" stroke="#000000" stroke-width="1" stroke-opacity="0"></use></g></g><g><use xlink:href="#a2Jwe3A1vl" opacity="1" fill="#000000" fill-opacity="0"></use><g><use xlink:href="#a2Jwe3A1vl" opacity="1" fill-opacity="0" stroke="#000000" stroke-width="1" stroke-opacity="0"></use></g></g><g><use xlink:href="#dkJxamo98" opacity="1" fill="#000000" fill-opacity="0"></use><g><use xlink:href="#dkJxamo98" opacity="1" fill-opacity="0" stroke="#000000" stroke-width="1" stroke-opacity="0"></use></g></g></g></g></svg>