<?xml version="1.0" encoding="utf-8"?>
<svg viewBox="-700.104 -34.634 1907.628 423.31" xmlns="http://www.w3.org/2000/svg">
  <path d="M -181.044 288.435 C 337.84 288.435 350.191 199.073 465.03 265.22 C 579.869 331.367 603.673 303.644 718.627 183.151 C 914.748 -22.42 1180.237 -37.807 1229.34 -37.464 L 1226.866 350.952 L -693.134 350.952 C -708.477 349.448 -837.404 288.435 -181.044 288.435 Z" style="fill: rgb(255, 255, 255);" transform="matrix(-1, 0, 0, -1, 515.967285, 313.482544)"/>
  <path d="M -641.082 429.937 C -641.082 429.937 -445.755 397.355 -61.708 406.713 C 322.256 416.077 518.388 392.409 674.261 386.492 C 822.269 380.875 1278.998 378.628 1278.998 378.628 L 1279.5 378.626 L 1279.5 436.547 L -641.5 436.547 L -641.5 430.007 Z M -640.5 435.547 L 1278.5 435.547 L 1278.5 379.631 C 1261.53 379.716 822.291 381.875 674.299 387.492 C 518.466 393.405 322.304 417.073 -61.732 407.713 C -445.685 398.349 -630.354 429.213 -640.5 430.855 Z" style="fill: none;"/>
  <path d="M -641.082 429.937 C -641.082 429.937 -445.755 397.355 -61.708 406.713 C 322.256 416.077 518.388 392.409 674.261 386.492 C 822.269 380.875 1278.998 378.628 1278.998 378.628 L 1279.5 378.626 L 1279.5 436.547 L -641.5 436.547 L -641.5 430.007 Z M -640.5 435.547 L 1278.5 435.547 L 1278.5 379.631 C 1261.53 379.716 822.291 381.875 674.299 387.492 C 518.466 393.405 322.304 417.073 -61.732 407.713 C -445.685 398.349 -630.354 429.213 -640.5 430.855 Z" style="fill: none;"/>
  <path style="fill: rgb(216, 216, 216); stroke: rgb(0, 0, 0);" transform="matrix(-1, 0, 0, -1, 0, 0)"/>
  <path style="fill: rgb(216, 216, 216); stroke: rgb(0, 0, 0);" d="M -7.406 569.111"/>
</svg>